<svg width="630" height="327" viewBox="0 0 630 327" fill="none" xmlns="http://www.w3.org/2000/svg">
<path d="M549.446 25.09H481.09V114.232L549.446 115.941V25.09Z" fill="#E0E0E0"/>
<path d="M544.949 28.2578H485.137V109.106L544.949 111.124V28.2578Z" fill="#FAFAFA"/>
<path d="M534.476 42.9485L494.781 41.4395V97.953H534.476V42.9485Z" fill="#E0E0E0"/>
<path d="M494.781 97.953L534.476 68.9217L494.781 41.4395V97.953Z" fill="#EBEBEB"/>
<path d="M102.674 65.9735H17.9688V325.456H102.674V65.9735Z" fill="#EBEBEB"/>
<path d="M169.361 66.803H102.414V325.456H169.361V66.803Z" fill="#F5F5F5"/>
<path d="M94.3696 107.507H22.5159V127.734H94.3696V107.507Z" fill="#E0E0E0"/>
<path d="M28.5418 110.045H24.5144V125.525H28.5418V110.045Z" fill="#F5F5F5"/>
<path d="M33.2788 113.303C33.2788 113.556 33.2038 113.803 33.0632 114.014C32.9227 114.224 32.7229 114.388 32.4892 114.485C32.2554 114.582 31.9982 114.607 31.7501 114.558C31.5019 114.508 31.274 114.387 31.0951 114.208C30.9162 114.029 30.7944 113.801 30.745 113.553C30.6957 113.305 30.721 113.047 30.8178 112.814C30.9146 112.58 31.0786 112.38 31.289 112.24C31.4993 112.099 31.7466 112.024 31.9996 112.024C32.3389 112.024 32.6643 112.159 32.9041 112.399C33.144 112.638 33.2788 112.964 33.2788 113.303Z" fill="#FAFAFA"/>
<path d="M33.2788 118.77C33.2788 119.109 33.144 119.434 32.9041 119.674C32.6643 119.914 32.3389 120.049 31.9996 120.049C31.6604 120.049 31.335 119.914 31.0951 119.674C30.8552 119.434 30.7205 119.109 30.7205 118.77C30.7205 118.43 30.8552 118.105 31.0951 117.865C31.335 117.625 31.6604 117.49 31.9996 117.49C32.3389 117.49 32.6643 117.625 32.9041 117.865C33.144 118.105 33.2788 118.43 33.2788 118.77Z" fill="#FAFAFA"/>
<path d="M42.3532 112.024H38.3958V123.916H42.3532V112.024Z" fill="#F5F5F5"/>
<path d="M48.0593 112.024H44.1018V123.916H48.0593V112.024Z" fill="#F5F5F5"/>
<path d="M53.7756 112.024H49.8181V123.916H53.7756V112.024Z" fill="#F5F5F5"/>
<path d="M59.4819 112.024H55.5244V123.916H59.4819V112.024Z" fill="#F5F5F5"/>
<path d="M65.1982 112.024H61.2407V123.916H65.1982V112.024Z" fill="#F5F5F5"/>
<path d="M70.9047 112.024H66.9473V123.916H70.9047V112.024Z" fill="#F5F5F5"/>
<path d="M76.621 112.024H72.6636V123.916H76.621V112.024Z" fill="#F5F5F5"/>
<path d="M82.3273 112.024H78.3699V123.916H82.3273V112.024Z" fill="#F5F5F5"/>
<path d="M88.0436 112.024H84.0862V123.916H88.0436V112.024Z" fill="#F5F5F5"/>
<path d="M93.7499 112.024H89.7925V123.916H93.7499V112.024Z" fill="#F5F5F5"/>
<path d="M94.3696 139.906H22.5159V160.133H94.3696V139.906Z" fill="#E0E0E0"/>
<path d="M28.5418 142.444H24.5144V157.924H28.5418V142.444Z" fill="#F5F5F5"/>
<path d="M33.2788 145.702C33.2788 146.041 33.144 146.367 32.9041 146.607C32.6643 146.846 32.3389 146.981 31.9996 146.981C31.6604 146.981 31.335 146.846 31.0951 146.607C30.8552 146.367 30.7205 146.041 30.7205 145.702C30.7205 145.363 30.8552 145.037 31.0951 144.798C31.335 144.558 31.6604 144.423 31.9996 144.423C32.3389 144.423 32.6643 144.558 32.9041 144.798C33.144 145.037 33.2788 145.363 33.2788 145.702Z" fill="#FAFAFA"/>
<path d="M33.2788 151.179C33.2788 151.432 33.2038 151.679 33.0632 151.889C32.9227 152.1 32.7229 152.264 32.4892 152.36C32.2554 152.457 31.9982 152.483 31.7501 152.433C31.5019 152.384 31.274 152.262 31.0951 152.083C30.9162 151.904 30.7944 151.676 30.745 151.428C30.6957 151.18 30.721 150.923 30.8178 150.689C30.9146 150.455 31.0786 150.256 31.289 150.115C31.4993 149.974 31.7466 149.899 31.9996 149.899C32.3389 149.899 32.6643 150.034 32.9041 150.274C33.144 150.514 33.2788 150.839 33.2788 151.179Z" fill="#FAFAFA"/>
<path d="M42.3532 144.423H38.3958V156.315H42.3532V144.423Z" fill="#F5F5F5"/>
<path d="M48.0593 144.423H44.1018V156.315H48.0593V144.423Z" fill="#F5F5F5"/>
<path d="M53.7756 144.423H49.8181V156.315H53.7756V144.423Z" fill="#F5F5F5"/>
<path d="M59.4819 144.423H55.5244V156.315H59.4819V144.423Z" fill="#F5F5F5"/>
<path d="M65.1982 144.423H61.2407V156.315H65.1982V144.423Z" fill="#F5F5F5"/>
<path d="M70.9047 144.423H66.9473V156.315H70.9047V144.423Z" fill="#F5F5F5"/>
<path d="M76.621 144.423H72.6636V156.315H76.621V144.423Z" fill="#F5F5F5"/>
<path d="M82.3273 144.423H78.3699V156.315H82.3273V144.423Z" fill="#F5F5F5"/>
<path d="M88.0436 144.423H84.0862V156.315H88.0436V144.423Z" fill="#F5F5F5"/>
<path d="M93.7499 144.423H89.7925V156.315H93.7499V144.423Z" fill="#F5F5F5"/>
<path d="M94.3696 172.305H22.5159V192.532H94.3696V172.305Z" fill="#E0E0E0"/>
<path d="M28.5418 174.853H24.5144V190.333H28.5418V174.853Z" fill="#F5F5F5"/>
<path d="M33.2788 178.081C33.2788 178.334 33.2038 178.581 33.0632 178.792C32.9227 179.002 32.7229 179.166 32.4892 179.263C32.2554 179.36 31.9982 179.385 31.7501 179.336C31.5019 179.286 31.274 179.165 31.0951 178.986C30.9162 178.807 30.7944 178.579 30.745 178.331C30.6957 178.083 30.721 177.825 30.8178 177.592C30.9146 177.358 31.0786 177.158 31.289 177.018C31.4993 176.877 31.7466 176.802 31.9996 176.802C32.3389 176.802 32.6643 176.937 32.9041 177.177C33.144 177.417 33.2788 177.742 33.2788 178.081Z" fill="#FAFAFA"/>
<path d="M33.2788 183.578C33.2788 183.831 33.2038 184.078 33.0632 184.288C32.9227 184.499 32.7229 184.663 32.4892 184.76C32.2554 184.856 31.9982 184.882 31.7501 184.832C31.5019 184.783 31.274 184.661 31.0951 184.482C30.9162 184.303 30.7944 184.075 30.745 183.827C30.6957 183.579 30.721 183.322 30.8178 183.088C30.9146 182.854 31.0786 182.655 31.289 182.514C31.4993 182.374 31.7466 182.299 31.9996 182.299C32.3389 182.299 32.6643 182.433 32.9041 182.673C33.144 182.913 33.2788 183.238 33.2788 183.578Z" fill="#FAFAFA"/>
<path d="M42.3532 176.832H38.3958V188.724H42.3532V176.832Z" fill="#F5F5F5"/>
<path d="M48.0593 176.832H44.1018V188.724H48.0593V176.832Z" fill="#F5F5F5"/>
<path d="M53.7756 176.832H49.8181V188.724H53.7756V176.832Z" fill="#F5F5F5"/>
<path d="M59.4819 176.832H55.5244V188.724H59.4819V176.832Z" fill="#F5F5F5"/>
<path d="M65.1982 176.832H61.2407V188.724H65.1982V176.832Z" fill="#F5F5F5"/>
<path d="M70.9047 176.832H66.9473V188.724H70.9047V176.832Z" fill="#F5F5F5"/>
<path d="M76.621 176.832H72.6636V188.724H76.621V176.832Z" fill="#F5F5F5"/>
<path d="M82.3273 176.832H78.3699V188.724H82.3273V176.832Z" fill="#F5F5F5"/>
<path d="M88.0436 176.832H84.0862V188.724H88.0436V176.832Z" fill="#F5F5F5"/>
<path d="M93.7499 176.832H89.7925V188.724H93.7499V176.832Z" fill="#F5F5F5"/>
<path d="M94.3696 204.714H22.5159V224.941H94.3696V204.714Z" fill="#E0E0E0"/>
<path d="M28.5418 207.253H24.5144V222.733H28.5418V207.253Z" fill="#F5F5F5"/>
<path d="M33.2788 210.51C33.2788 210.763 33.2038 211.011 33.0632 211.221C32.9227 211.431 32.7229 211.595 32.4892 211.692C32.2554 211.789 31.9982 211.814 31.7501 211.765C31.5019 211.716 31.274 211.594 31.0951 211.415C30.9162 211.236 30.7944 211.008 30.745 210.76C30.6957 210.512 30.721 210.255 30.8178 210.021C30.9146 209.787 31.0786 209.587 31.289 209.447C31.4993 209.306 31.7466 209.231 31.9996 209.231C32.3389 209.231 32.6643 209.366 32.9041 209.606C33.144 209.846 33.2788 210.171 33.2788 210.51Z" fill="#FAFAFA"/>
<path d="M33.2788 215.977C33.2788 216.316 33.144 216.642 32.9041 216.881C32.6643 217.121 32.3389 217.256 31.9996 217.256C31.6604 217.256 31.335 217.121 31.0951 216.881C30.8552 216.642 30.7205 216.316 30.7205 215.977C30.7205 215.638 30.8552 215.312 31.0951 215.072C31.335 214.832 31.6604 214.698 31.9996 214.698C32.3389 214.698 32.6643 214.832 32.9041 215.072C33.144 215.312 33.2788 215.638 33.2788 215.977Z" fill="#FAFAFA"/>
<path d="M42.3532 209.231H38.3958V221.124H42.3532V209.231Z" fill="#F5F5F5"/>
<path d="M48.0593 209.231H44.1018V221.124H48.0593V209.231Z" fill="#F5F5F5"/>
<path d="M53.7756 209.231H49.8181V221.124H53.7756V209.231Z" fill="#F5F5F5"/>
<path d="M59.4819 209.231H55.5244V221.124H59.4819V209.231Z" fill="#F5F5F5"/>
<path d="M65.1982 209.231H61.2407V221.124H65.1982V209.231Z" fill="#F5F5F5"/>
<path d="M70.9047 209.231H66.9473V221.124H70.9047V209.231Z" fill="#F5F5F5"/>
<path d="M76.621 209.231H72.6636V221.124H76.621V209.231Z" fill="#F5F5F5"/>
<path d="M82.3273 209.231H78.3699V221.124H82.3273V209.231Z" fill="#F5F5F5"/>
<path d="M88.0436 209.231H84.0862V221.124H88.0436V209.231Z" fill="#F5F5F5"/>
<path d="M93.7499 209.231H89.7925V221.124H93.7499V209.231Z" fill="#F5F5F5"/>
<path d="M94.3696 237.113H22.5159V257.34H94.3696V237.113Z" fill="#E0E0E0"/>
<path d="M28.5418 239.652H24.5144V255.132H28.5418V239.652Z" fill="#F5F5F5"/>
<path d="M33.2788 242.91C33.2788 243.249 33.144 243.574 32.9041 243.814C32.6643 244.054 32.3389 244.189 31.9996 244.189C31.6604 244.189 31.335 244.054 31.0951 243.814C30.8552 243.574 30.7205 243.249 30.7205 242.91C30.7205 242.57 30.8552 242.245 31.0951 242.005C31.335 241.765 31.6604 241.63 31.9996 241.63C32.3389 241.63 32.6643 241.765 32.9041 242.005C33.144 242.245 33.2788 242.57 33.2788 242.91Z" fill="#FAFAFA"/>
<path d="M33.2788 248.386C33.2788 248.639 33.2038 248.886 33.0632 249.097C32.9227 249.307 32.7229 249.471 32.4892 249.568C32.2554 249.665 31.9982 249.69 31.7501 249.641C31.5019 249.591 31.274 249.47 31.0951 249.291C30.9162 249.112 30.7944 248.884 30.745 248.636C30.6957 248.388 30.721 248.13 30.8178 247.897C30.9146 247.663 31.0786 247.463 31.289 247.322C31.4993 247.182 31.7466 247.107 31.9996 247.107C32.3389 247.107 32.6643 247.242 32.9041 247.482C33.144 247.721 33.2788 248.047 33.2788 248.386Z" fill="#FAFAFA"/>
<path d="M42.3532 241.63H38.3958V253.523H42.3532V241.63Z" fill="#F5F5F5"/>
<path d="M48.0593 241.63H44.1018V253.523H48.0593V241.63Z" fill="#F5F5F5"/>
<path d="M53.7756 241.63H49.8181V253.523H53.7756V241.63Z" fill="#F5F5F5"/>
<path d="M59.4819 241.63H55.5244V253.523H59.4819V241.63Z" fill="#F5F5F5"/>
<path d="M65.1982 241.63H61.2407V253.523H65.1982V241.63Z" fill="#F5F5F5"/>
<path d="M70.9047 241.63H66.9473V253.523H70.9047V241.63Z" fill="#F5F5F5"/>
<path d="M76.621 241.63H72.6636V253.523H76.621V241.63Z" fill="#F5F5F5"/>
<path d="M82.3273 241.63H78.3699V253.523H82.3273V241.63Z" fill="#F5F5F5"/>
<path d="M88.0436 241.63H84.0862V253.523H88.0436V241.63Z" fill="#F5F5F5"/>
<path d="M93.7499 241.63H89.7925V253.523H93.7499V241.63Z" fill="#F5F5F5"/>
<path d="M94.3696 269.512H22.5159V289.739H94.3696V269.512Z" fill="#E0E0E0"/>
<path d="M28.5418 272.061H24.5144V287.541H28.5418V272.061Z" fill="#F5F5F5"/>
<path d="M33.2789 275.319C33.275 275.571 33.1966 275.816 33.0537 276.024C32.9107 276.232 32.7096 276.392 32.4756 276.486C32.2415 276.58 31.985 276.602 31.7381 276.551C31.4913 276.499 31.2653 276.376 31.0884 276.196C30.9115 276.017 30.7916 275.789 30.7439 275.541C30.6961 275.293 30.7226 275.037 30.82 274.805C30.9173 274.572 31.0813 274.374 31.2912 274.234C31.5011 274.094 31.7476 274.02 31.9997 274.02C32.1694 274.02 32.3374 274.053 32.4939 274.119C32.6504 274.184 32.7923 274.28 32.9114 274.401C33.0304 274.522 33.1242 274.666 33.1873 274.823C33.2504 274.981 33.2816 275.149 33.2789 275.319Z" fill="#FAFAFA"/>
<path d="M33.2788 280.785C33.2788 281.038 33.2038 281.285 33.0632 281.496C32.9227 281.706 32.7229 281.87 32.4892 281.967C32.2554 282.064 31.9982 282.089 31.7501 282.04C31.5019 281.99 31.274 281.868 31.0951 281.69C30.9162 281.511 30.7944 281.283 30.745 281.035C30.6957 280.786 30.721 280.529 30.8178 280.296C30.9146 280.062 31.0786 279.862 31.289 279.721C31.4993 279.581 31.7466 279.506 31.9996 279.506C32.3389 279.506 32.6643 279.641 32.9041 279.881C33.144 280.12 33.2788 280.446 33.2788 280.785Z" fill="#FAFAFA"/>
<path d="M42.3532 274.039H38.3958V285.932H42.3532V274.039Z" fill="#F5F5F5"/>
<path d="M48.0593 274.039H44.1018V285.932H48.0593V274.039Z" fill="#F5F5F5"/>
<path d="M53.7756 274.039H49.8181V285.932H53.7756V274.039Z" fill="#F5F5F5"/>
<path d="M59.4819 274.039H55.5244V285.932H59.4819V274.039Z" fill="#F5F5F5"/>
<path d="M65.1982 274.039H61.2407V285.932H65.1982V274.039Z" fill="#F5F5F5"/>
<path d="M70.9047 274.039H66.9473V285.932H70.9047V274.039Z" fill="#F5F5F5"/>
<path d="M76.621 274.039H72.6636V285.932H76.621V274.039Z" fill="#F5F5F5"/>
<path d="M82.3273 274.039H78.3699V285.932H82.3273V274.039Z" fill="#F5F5F5"/>
<path d="M88.0436 274.039H84.0862V285.932H88.0436V274.039Z" fill="#F5F5F5"/>
<path d="M93.7499 274.039H89.7925V285.932H93.7499V274.039Z" fill="#F5F5F5"/>
<path d="M94.3696 301.921H22.5159V322.148H94.3696V301.921Z" fill="#E0E0E0"/>
<path d="M28.5418 304.46H24.5144V319.94H28.5418V304.46Z" fill="#F5F5F5"/>
<path d="M33.2788 307.718C33.2788 307.971 33.2038 308.218 33.0632 308.428C32.9227 308.639 32.7229 308.803 32.4892 308.899C32.2554 308.996 31.9982 309.022 31.7501 308.972C31.5019 308.923 31.274 308.801 31.0951 308.622C30.9162 308.443 30.7944 308.215 30.745 307.967C30.6957 307.719 30.721 307.462 30.8178 307.228C30.9146 306.994 31.0786 306.795 31.289 306.654C31.4993 306.514 31.7466 306.438 31.9996 306.438C32.3389 306.438 32.6643 306.573 32.9041 306.813C33.144 307.053 33.2788 307.378 33.2788 307.718Z" fill="#FAFAFA"/>
<path d="M33.2788 313.194C33.2788 313.447 33.2038 313.695 33.0632 313.905C32.9227 314.115 32.7229 314.279 32.4892 314.376C32.2554 314.473 31.9982 314.498 31.7501 314.449C31.5019 314.399 31.274 314.278 31.0951 314.099C30.9162 313.92 30.7944 313.692 30.745 313.444C30.6957 313.196 30.721 312.938 30.8178 312.705C30.9146 312.471 31.0786 312.271 31.289 312.131C31.4993 311.99 31.7466 311.915 31.9996 311.915C32.168 311.914 32.3349 311.946 32.4907 312.01C32.6465 312.074 32.7881 312.168 32.9071 312.287C33.0262 312.406 33.1203 312.547 33.1841 312.703C33.248 312.859 33.2801 313.026 33.2788 313.194Z" fill="#FAFAFA"/>
<path d="M42.3532 306.438H38.3958V318.331H42.3532V306.438Z" fill="#F5F5F5"/>
<path d="M48.0593 306.438H44.1018V318.331H48.0593V306.438Z" fill="#F5F5F5"/>
<path d="M53.7756 306.438H49.8181V318.331H53.7756V306.438Z" fill="#F5F5F5"/>
<path d="M59.4819 306.438H55.5244V318.331H59.4819V306.438Z" fill="#F5F5F5"/>
<path d="M65.1982 306.438H61.2407V318.331H65.1982V306.438Z" fill="#F5F5F5"/>
<path d="M70.9047 306.438H66.9473V318.331H70.9047V306.438Z" fill="#F5F5F5"/>
<path d="M76.621 306.438H72.6636V318.331H76.621V306.438Z" fill="#F5F5F5"/>
<path d="M82.3273 306.438H78.3699V318.331H82.3273V306.438Z" fill="#F5F5F5"/>
<path d="M88.0436 306.438H84.0862V318.331H88.0436V306.438Z" fill="#F5F5F5"/>
<path d="M93.7499 306.438H89.7925V318.331H93.7499V306.438Z" fill="#F5F5F5"/>
<path d="M66.9472 107.507C66.9072 107.299 66.8838 107.089 66.8772 106.877C66.8772 106.468 66.8173 105.878 66.7973 105.078C66.7773 104.279 66.7973 103.35 66.7073 102.24C66.6687 100.997 66.5013 99.7612 66.2077 98.5526C65.7971 97.1218 65.1485 95.7704 64.2889 94.5552C63.3097 93.15 61.9461 92.057 60.3614 91.4072C58.5704 90.7495 56.6905 90.3654 54.785 90.268L48.599 89.7383C40.1145 88.9988 32.4194 88.5291 26.853 88.4192C24.0648 88.3592 21.8562 88.3692 20.2473 88.4192H18.4484C18.2393 88.4442 18.028 88.4442 17.8188 88.4192C18.0265 88.3792 18.2371 88.3558 18.4484 88.3492L20.2373 88.2393C21.8063 88.1693 24.0648 88.0994 26.853 88.1094C32.4394 88.1094 40.1544 88.5391 48.639 89.2786L54.835 89.8282C56.787 89.9286 58.7117 90.3297 60.5413 91.0175C62.202 91.7139 63.6252 92.8767 64.6387 94.3653C65.5186 95.6428 66.1712 97.0628 66.5674 98.5626C66.8435 99.7997 66.9876 101.063 66.9971 102.33C66.9971 103.439 66.9971 104.399 66.9971 105.178C66.9971 105.958 66.9971 106.507 66.9971 106.977C66.9983 107.155 66.9816 107.332 66.9472 107.507Z" fill="#E0E0E0"/>
<path d="M45.1511 107.507C45.1305 107.311 45.1305 107.113 45.1511 106.917C45.1511 106.467 45.1511 105.918 45.1511 105.218C45.1511 104.519 45.1512 103.589 45.0612 102.56C45.0045 101.4 44.7013 100.266 44.1718 99.2322C43.3951 98.0718 42.2568 97.2005 40.9339 96.7538C39.4345 96.1675 37.8036 96.0017 36.2169 96.2741C35.3667 96.4127 34.5458 96.6931 33.7885 97.1035C33.0021 97.5042 32.3467 98.1214 31.8997 98.8824C31.6785 99.2634 31.5621 99.6961 31.5621 100.137C31.5621 100.577 31.6785 101.01 31.8997 101.391C32.1252 101.791 32.4306 102.14 32.7968 102.416C33.163 102.693 33.5822 102.892 34.0283 103C34.4717 103.099 34.9329 103.085 35.3695 102.959C35.8061 102.834 36.2041 102.6 36.5267 102.28C37.1733 101.647 37.5705 100.803 37.646 99.9017C37.7043 99.0244 37.4374 98.1564 36.8965 97.4633C36.408 96.7652 35.7606 96.1932 35.0077 95.7944C34.2447 95.4295 33.4219 95.2061 32.5792 95.1348C31.7698 95.0149 30.9803 94.9149 30.2208 94.825C28.6918 94.6551 27.2227 94.5552 25.9535 94.4952C23.3352 94.3953 21.2166 94.4352 19.7475 94.4253H18.0586C17.8628 94.4491 17.6648 94.4491 17.469 94.4253C17.6587 94.3789 17.8533 94.3554 18.0486 94.3553L19.7375 94.2654C21.2066 94.2054 23.3352 94.1155 25.9635 94.1754C27.2827 94.1754 28.7217 94.2854 30.2607 94.4353C31.0402 94.5152 31.8297 94.6151 32.6492 94.7251C33.0589 94.795 33.4687 94.845 33.8984 94.9249C34.3409 95.008 34.7686 95.1562 35.1676 95.3646C35.9912 95.7807 36.7038 96.3871 37.2462 97.1335C37.8537 97.9199 38.1555 98.8998 38.0957 99.8917C38.0221 100.925 37.566 101.894 36.8165 102.61C36.4296 102.994 35.9519 103.274 35.4278 103.424C34.9037 103.575 34.3501 103.59 33.8185 103.469C33.3113 103.344 32.8342 103.119 32.4155 102.806C31.9967 102.494 31.6447 102.101 31.38 101.651C31.1236 101.193 30.9889 100.676 30.9889 100.152C30.9889 99.6267 31.1236 99.1105 31.38 98.6525C31.8696 97.7958 32.5991 97.101 33.4787 96.6538C34.2883 96.2268 35.1628 95.9364 36.067 95.7944C37.7513 95.5099 39.4816 95.7002 41.0638 96.344C42.4679 96.8352 43.6651 97.7859 44.4616 99.0423C44.9991 100.128 45.2924 101.319 45.321 102.53C45.321 103.579 45.321 104.529 45.321 105.218C45.321 105.908 45.321 106.457 45.2511 106.907C45.2438 107.111 45.2102 107.312 45.1511 107.507Z" fill="#E0E0E0"/>
<path d="M72.8133 107.507C72.7457 107.288 72.6956 107.064 72.6634 106.837C72.5835 106.397 72.4636 105.748 72.2837 104.918C71.7937 102.571 71.0809 100.275 70.155 98.0628C68.8524 94.7669 66.6967 91.8766 63.9091 89.6882C62.2247 88.4718 60.2497 87.7204 58.1828 87.5096C55.9493 87.2653 53.7039 87.1452 51.4571 87.1498C42.1631 86.9799 33.7485 87.0099 27.6624 86.7701C24.6644 86.6601 22.156 86.5102 20.4571 86.3903L18.4584 86.2204C18.2291 86.2092 18.0016 86.1757 17.7788 86.1205C18.0083 86.1034 18.2388 86.1034 18.4684 86.1205L20.4671 86.2004C22.166 86.2604 24.6244 86.3503 27.6724 86.4103C33.7585 86.5602 42.1631 86.4603 51.4671 86.6401C53.7378 86.6337 56.0069 86.7605 58.2627 87.0199C60.4104 87.2455 62.4593 88.0388 64.1989 89.3184C65.7448 90.4936 67.0941 91.907 68.1963 93.5057C69.1255 94.8974 69.9091 96.3809 70.5348 97.9329C71.4462 100.188 72.1161 102.532 72.5335 104.928C72.6834 105.768 72.7734 106.417 72.8233 106.867C72.8392 107.08 72.8358 107.294 72.8133 107.507Z" fill="#E0E0E0"/>
<path d="M93.3801 69.2015H23.5051V79.345H93.3801V69.2015Z" fill="#E0E0E0"/>
<path d="M76.9107 74.2682H38.8652V79.3449H76.9107V74.2682Z" fill="#F5F5F5"/>
<path d="M628.395 324.657H626.776H622.009L603.701 324.777L536.365 325.107L314.198 325.866C227.414 326.046 148.864 326.076 92.001 325.866C63.5693 325.776 40.5642 325.626 24.6644 325.426C16.6696 325.316 10.5435 325.197 6.35621 325.067C2.16891 324.937 -0.0296781 324.747 0.000302569 324.627C0.131365 324.661 0.265081 324.685 0.400046 324.697C0.669872 324.697 1.06961 324.767 1.60927 324.797C2.67858 324.857 4.26755 324.907 6.3662 324.957C10.5435 325.057 16.7195 325.147 24.6644 325.217C40.5642 325.366 63.5693 325.456 92.001 325.496C148.864 325.586 227.414 325.496 314.198 325.316L536.365 324.777L603.701 324.617H622.009H626.776C627.846 324.637 628.395 324.657 628.395 324.657Z" fill="#263238"/>
<path d="M480.231 101.321C479.862 100.125 479.057 99.1113 477.976 98.4803C476.896 97.8493 475.617 97.6468 474.395 97.9128C473.522 98.281 472.599 98.5136 471.656 98.6023C470.838 98.4614 470.051 98.1809 469.328 97.7729C467.516 97.0903 465.509 97.1418 463.734 97.9164C461.959 98.6909 460.556 100.127 459.824 101.92C458.65 101.266 457.309 100.974 455.969 101.081C454.629 101.187 453.351 101.687 452.294 102.518C451.238 103.349 450.451 104.474 450.032 105.751C449.613 107.028 449.581 108.4 449.94 109.695C448.675 109.938 447.521 110.582 446.65 111.532C445.779 112.481 445.238 113.686 445.105 114.968C444.973 116.25 445.257 117.54 445.916 118.648C446.574 119.756 447.572 120.622 448.761 121.118C448.226 122.076 447.934 123.15 447.911 124.247C447.887 125.344 448.132 126.43 448.625 127.41C449.118 128.39 449.844 129.234 450.739 129.869C451.633 130.504 452.67 130.91 453.758 131.051C453.584 132.234 453.761 133.442 454.265 134.525C454.77 135.608 455.582 136.52 456.599 137.147C457.617 137.774 458.796 138.09 459.99 138.054C461.185 138.019 462.343 137.634 463.322 136.948C463.596 138.092 464.198 139.133 465.053 139.942C465.908 140.752 466.979 141.295 468.137 141.507C469.296 141.719 470.49 141.589 471.576 141.135C472.662 140.68 473.593 139.92 474.255 138.946C476.323 141.055 480.081 140.745 482.25 138.746C484.418 136.748 485.158 133.54 484.828 130.612C486.107 130.999 487.476 130.97 488.738 130.53C489.999 130.09 491.089 129.261 491.85 128.163C492.611 127.064 493.004 125.753 492.972 124.417C492.94 123.081 492.486 121.789 491.674 120.728C492.76 120.616 493.789 120.186 494.633 119.493C495.477 118.8 496.099 117.874 496.42 116.831C496.717 115.779 496.763 114.673 496.554 113.6C496.346 112.528 495.889 111.519 495.221 110.655C493.852 108.935 491.92 107.753 489.765 107.317C489.593 106.33 489.215 105.391 488.657 104.559C488.099 103.727 487.373 103.022 486.525 102.489C485.677 101.956 484.727 101.607 483.736 101.464C482.744 101.321 481.734 101.388 480.77 101.66" fill="#263238"/>
<path d="M472.216 242.8L469.748 321.789H465.99L466.72 243.009L472.216 242.8Z" fill="#455A64"/>
<path d="M485.787 241.85L504.335 325.216L508.363 325.026L493.043 241.85H485.787Z" fill="#455A64"/>
<path d="M451.519 242.799L429.903 325.216L425.136 325.026L445.463 242.45L451.519 242.799Z" fill="#455A64"/>
<path d="M504.125 161.092C504.125 161.092 524.312 159.943 522.293 183.298C520.275 206.653 519.116 230.267 511.62 238.372C504.125 246.477 428.584 246.727 422.238 240.101C415.892 233.475 434.35 233.755 437.808 233.755C441.266 233.755 462.602 235.754 469.527 217.606C476.453 199.457 474.714 159.913 504.125 161.092Z" fill="#455A64"/>
<path d="M505.415 161.092C505.415 161.092 520.845 164.25 519.406 180.4C517.967 196.549 513.929 224.801 506.414 232.016C498.899 239.232 469.538 240.791 453.648 239.801C435.19 238.642 423.538 235.134 423.538 235.134C423.538 235.134 420.17 237.303 421.199 238.692C422.228 240.081 431.193 245.688 474.834 244.768C518.476 243.849 515.418 237.393 517.227 230.367C519.036 223.342 522.834 185.856 522.304 177.611C521.774 169.367 517.647 162.521 505.415 161.092Z" fill="#455A64"/>
<path d="M412.484 320.21L412.435 310.996L429.643 310.786L429.863 324.227L428.794 324.307C424.057 324.627 404.64 325.606 401.452 324.687C397.904 323.677 412.484 320.21 412.484 320.21Z" fill="#3368EB"/>
<g opacity="0.4">
<path d="M423.627 324.197C423.865 322.742 424.629 321.426 425.776 320.499C426.898 319.581 428.325 319.117 429.773 319.2L429.833 324.007L423.627 324.197Z" fill="black"/>
</g>
<path opacity="0.4" d="M405.359 322.158C405.359 322.158 400.252 323.697 400.902 324.537C401.551 325.376 421.209 325.127 429.883 324.257V323.867L406.958 324.357C406.958 324.357 406.368 322.188 405.359 322.158Z" fill="black"/>
<path d="M430.123 323.857H429.823L428.974 323.917L425.856 324.087C423.208 324.217 419.56 324.347 415.522 324.407C411.485 324.467 407.837 324.407 405.189 324.407L402.061 324.317H401.212H400.912H402.061H405.199C407.837 324.317 411.485 324.317 415.522 324.317C419.56 324.317 423.208 324.157 425.846 324.067L428.974 323.957H429.823L430.123 323.857Z" fill="#263238"/>
<path d="M406.918 324.627C406.777 324.108 406.576 323.609 406.319 323.138C406.001 322.717 405.639 322.332 405.239 321.988C405.759 322.207 406.199 322.58 406.499 323.058C406.8 323.535 406.946 324.093 406.918 324.657V324.627Z" fill="#263238"/>
<path d="M411.965 321.988C411.915 321.988 411.675 321.729 411.415 321.329C411.23 321.106 411.1 320.842 411.035 320.559C411.085 320.559 411.335 320.829 411.595 321.219C411.855 321.609 412.015 321.988 411.965 321.988Z" fill="#263238"/>
<path d="M413.354 321.229C413.354 321.229 413.034 321.099 412.734 320.829C412.435 320.559 412.225 320.319 412.265 320.279C412.305 320.24 412.574 320.409 412.874 320.679C413.174 320.949 413.384 321.189 413.354 321.229Z" fill="#263238"/>
<path d="M414.213 319.59C413.928 319.704 413.62 319.748 413.314 319.72C413.012 319.762 412.704 319.735 412.415 319.64C412.7 319.526 413.008 319.481 413.314 319.51C413.616 319.475 413.922 319.502 414.213 319.59Z" fill="#263238"/>
<path d="M414.503 318.441C414.212 318.648 413.861 318.757 413.504 318.75C413.165 318.809 412.817 318.764 412.504 318.621C412.834 318.564 413.169 318.537 413.504 318.541C413.834 318.48 414.168 318.447 414.503 318.441Z" fill="#263238"/>
<path d="M411.365 320.489C410.998 320.551 410.623 320.551 410.256 320.489C409.856 320.444 409.461 320.36 409.077 320.239C408.839 320.181 408.61 320.09 408.397 319.97C408.265 319.895 408.165 319.774 408.117 319.63C408.101 319.548 408.108 319.463 408.138 319.385C408.169 319.307 408.22 319.24 408.287 319.19C408.704 318.974 409.185 318.911 409.643 319.013C410.102 319.116 410.51 319.376 410.796 319.75C410.973 319.966 411.099 320.218 411.165 320.489C411.188 320.585 411.188 320.684 411.165 320.779C411.046 320.442 410.87 320.128 410.646 319.85C410.394 319.559 410.065 319.348 409.696 319.24C409.48 319.171 409.252 319.145 409.026 319.164C408.8 319.183 408.579 319.246 408.377 319.35C408.197 319.48 408.277 319.69 408.467 319.8C408.666 319.911 408.877 319.998 409.097 320.06C409.468 320.185 409.849 320.278 410.236 320.339C410.946 320.459 411.365 320.459 411.365 320.489Z" fill="#263238"/>
<path d="M411.075 320.549C410.943 320.316 410.897 320.044 410.945 319.78C410.971 319.49 411.071 319.211 411.235 318.971C411.326 318.805 411.457 318.665 411.615 318.564C411.774 318.463 411.957 318.403 412.145 318.391C412.258 318.413 412.359 318.478 412.424 318.574C412.49 318.669 412.515 318.787 412.494 318.901C412.471 319.078 412.41 319.249 412.315 319.4C412.172 319.646 411.997 319.871 411.795 320.07C411.63 320.272 411.417 320.43 411.175 320.53C411.175 320.53 411.385 320.33 411.685 319.98C411.86 319.772 412.014 319.548 412.145 319.31C412.295 319.07 412.394 318.651 412.145 318.601C411.895 318.551 411.585 318.861 411.425 319.08C411.268 319.293 411.161 319.539 411.115 319.8C411.081 320.048 411.067 320.299 411.075 320.549Z" fill="#263238"/>
<path d="M429.693 319.15C429.693 319.15 429.194 319.15 428.424 319.21C427.415 319.346 426.461 319.754 425.666 320.389C424.879 321.043 424.288 321.9 423.957 322.868C423.707 323.607 423.687 324.097 423.647 324.097C423.627 323.981 423.627 323.863 423.647 323.747C423.67 323.432 423.727 323.12 423.817 322.818C424.112 321.802 424.708 320.899 425.527 320.23C426.346 319.561 427.35 319.156 428.404 319.07C428.736 319.03 429.072 319.03 429.404 319.07C429.503 319.085 429.6 319.112 429.693 319.15Z" fill="#263238"/>
<path d="M427.815 311.995C428.021 314.344 428.081 316.704 427.995 319.06C427.801 316.71 427.741 314.352 427.815 311.995Z" fill="#263238"/>
<path d="M421.439 322.548C419.793 322.88 418.101 322.917 416.442 322.658C416.442 322.598 417.571 322.658 418.96 322.658C420.349 322.658 421.429 322.488 421.439 322.548Z" fill="#263238"/>
<path d="M424.807 322.498C424.807 322.498 424.717 322.738 424.607 322.998C424.497 323.258 424.437 323.488 424.377 323.488C424.317 323.488 424.287 323.208 424.377 322.918C424.467 322.628 424.767 322.458 424.807 322.498Z" fill="#263238"/>
<path d="M426.056 320.899C426.106 320.899 425.996 321.119 425.816 321.299C425.636 321.479 425.466 321.599 425.426 321.559C425.386 321.519 425.486 321.339 425.666 321.159C425.846 320.979 426.016 320.859 426.056 320.899Z" fill="#263238"/>
<path d="M427.874 320.15C427.874 320.21 427.625 320.21 427.375 320.31C427.125 320.409 426.945 320.539 426.905 320.499C426.865 320.459 426.995 320.22 427.305 320.11C427.615 320 427.884 320.1 427.874 320.15Z" fill="#263238"/>
<path d="M429.124 319.8C429.124 319.85 429.044 319.94 428.904 320C428.764 320.06 428.624 320.06 428.604 320C428.584 319.94 428.684 319.86 428.824 319.8C428.964 319.74 429.124 319.74 429.124 319.8Z" fill="#263238"/>
<path d="M451.599 320.21L451.539 311.026L468.758 310.816L468.978 324.257L467.909 324.337C463.162 324.657 443.754 325.636 440.566 324.717C437.009 323.677 451.599 320.21 451.599 320.21Z" fill="#3368EB"/>
<g opacity="0.4">
<path d="M462.732 324.197C462.97 322.742 463.734 321.426 464.881 320.499C466.004 319.582 467.43 319.119 468.878 319.2L468.948 324.007L462.732 324.197Z" fill="black"/>
</g>
<path opacity="0.4" d="M444.474 322.158C444.474 322.158 439.367 323.697 440.017 324.537C440.666 325.376 460.314 325.127 468.998 324.257V323.867L446.083 324.357C446.083 324.357 445.473 322.188 444.474 322.158Z" fill="black"/>
<path d="M469.208 323.857H468.918L468.099 323.987L464.971 324.157C462.332 324.287 458.675 324.417 454.647 324.477C450.62 324.537 446.952 324.477 444.314 324.477L441.186 324.387H440.327H440.037H441.116H444.244C446.882 324.387 450.54 324.387 454.568 324.387C458.595 324.387 462.253 324.227 464.891 324.137L468.019 324.027H468.878L469.208 323.857Z" fill="#263238"/>
<path d="M446.033 324.627C445.886 324.109 445.681 323.61 445.423 323.138C445.11 322.704 444.748 322.309 444.344 321.958C444.882 322.147 445.33 322.528 445.603 323.028C445.933 323.492 446.086 324.06 446.033 324.627Z" fill="#263238"/>
<path d="M451.11 321.988C451.06 321.988 450.81 321.728 450.55 321.329C450.29 320.929 450.13 320.599 450.18 320.559C450.23 320.519 450.47 320.829 450.73 321.219C450.913 321.443 451.043 321.706 451.11 321.988Z" fill="#263238"/>
<path d="M452.459 321.229C452.459 321.229 452.149 321.099 451.849 320.829C451.549 320.559 451.34 320.319 451.37 320.279C451.4 320.24 451.689 320.409 451.989 320.679C452.289 320.949 452.499 321.189 452.459 321.229Z" fill="#263238"/>
<path d="M453.318 319.59C453.036 319.703 452.731 319.748 452.429 319.72C452.123 319.761 451.813 319.734 451.519 319.64C451.805 319.526 452.113 319.481 452.419 319.51C452.721 319.474 453.027 319.502 453.318 319.59Z" fill="#263238"/>
<path d="M453.608 318.441C453.317 318.648 452.966 318.757 452.608 318.75C452.27 318.808 451.922 318.763 451.609 318.621C451.939 318.564 452.274 318.538 452.608 318.541C452.938 318.481 453.273 318.447 453.608 318.441Z" fill="#263238"/>
<path d="M450.47 320.489C450.106 320.55 449.735 320.55 449.371 320.489C448.967 320.445 448.569 320.362 448.182 320.24C447.947 320.181 447.722 320.09 447.512 319.97C447.445 319.934 447.386 319.886 447.338 319.828C447.29 319.77 447.254 319.702 447.232 319.63C447.214 319.549 447.219 319.464 447.247 319.386C447.275 319.308 447.326 319.24 447.392 319.19C447.662 319.046 447.961 318.965 448.267 318.955C448.573 318.944 448.877 319.004 449.156 319.129C449.435 319.255 449.681 319.443 449.876 319.679C450.071 319.914 450.209 320.192 450.28 320.489C450.3 320.585 450.3 320.684 450.28 320.779C450.161 320.442 449.985 320.128 449.761 319.85C449.512 319.557 449.181 319.345 448.811 319.24C448.595 319.171 448.367 319.145 448.141 319.164C447.914 319.183 447.694 319.246 447.492 319.35C447.322 319.48 447.392 319.69 447.592 319.8C447.787 319.911 447.995 319.998 448.212 320.06C448.586 320.186 448.97 320.28 449.361 320.339C450.05 320.459 450.47 320.459 450.47 320.489Z" fill="#263238"/>
<path d="M450.19 320.549C450.116 320.437 450.066 320.311 450.042 320.179C450.018 320.047 450.021 319.911 450.05 319.78C450.08 319.491 450.18 319.213 450.34 318.971C450.431 318.804 450.564 318.663 450.725 318.562C450.885 318.46 451.07 318.401 451.259 318.391C451.371 318.415 451.469 318.482 451.533 318.577C451.596 318.672 451.62 318.788 451.599 318.901C451.581 319.079 451.519 319.251 451.419 319.4C451.28 319.645 451.109 319.87 450.91 320.07C450.74 320.272 450.524 320.429 450.28 320.53C450.28 320.53 450.5 320.33 450.8 319.98C450.971 319.772 451.122 319.548 451.249 319.31C451.399 319.07 451.499 318.651 451.249 318.601C451 318.551 450.7 318.861 450.53 319.08C450.379 319.296 450.277 319.541 450.23 319.8C450.189 320.048 450.176 320.299 450.19 320.549Z" fill="#263238"/>
<path d="M468.798 319.15C468.798 319.15 468.308 319.15 467.529 319.21C466.52 319.346 465.566 319.753 464.771 320.389C463.986 321.043 463.398 321.901 463.072 322.868C462.812 323.607 462.792 324.097 462.752 324.097C462.731 323.981 462.731 323.863 462.752 323.747C462.774 323.431 462.834 323.119 462.932 322.818C463.229 321.803 463.825 320.902 464.641 320.229C465.464 319.567 466.466 319.164 467.519 319.07C467.831 319.033 468.146 319.033 468.458 319.07C468.575 319.081 468.689 319.108 468.798 319.15Z" fill="#263238"/>
<path d="M466.93 311.995C467.123 314.345 467.183 316.704 467.109 319.06C466.903 316.711 466.843 314.351 466.93 311.995Z" fill="#263238"/>
<path d="M460.543 322.548C458.898 322.881 457.206 322.918 455.547 322.658C455.547 322.598 456.676 322.658 458.065 322.658C459.454 322.658 460.533 322.488 460.543 322.548Z" fill="#263238"/>
<path d="M463.921 322.498C463.921 322.498 463.832 322.738 463.722 322.998C463.612 323.258 463.542 323.488 463.492 323.488C463.442 323.488 463.392 323.208 463.492 322.918C463.592 322.628 463.882 322.458 463.921 322.498Z" fill="#263238"/>
<path d="M465.171 320.899C465.171 320.899 465.101 321.119 464.931 321.299C464.761 321.479 464.571 321.599 464.531 321.559C464.491 321.519 464.601 321.339 464.771 321.159C464.941 320.979 465.101 320.859 465.171 320.899Z" fill="#263238"/>
<path d="M466.979 320.15C466.979 320.21 466.739 320.21 466.49 320.31C466.24 320.409 466.06 320.539 466.01 320.499C465.96 320.459 466.1 320.22 466.42 320.11C466.739 320 466.999 320.1 466.979 320.15Z" fill="#263238"/>
<path d="M468.268 319.8C468.268 319.85 468.188 319.94 468.048 320C467.909 320.06 467.779 320.06 467.759 320C467.739 319.94 467.829 319.86 467.969 319.8C468.108 319.74 468.248 319.74 468.268 319.8Z" fill="#263238"/>
<path d="M418.281 131.181C417.081 143.174 413.914 179.55 430.533 178.281C450.15 176.792 454.667 161.292 454.667 161.292L450.85 147.301C450.85 147.301 431.492 164.18 430.992 162.091C428.274 150.949 428.994 135.668 429.433 130.222" fill="#FFBE9D"/>
<path d="M505.075 174.084L501.717 157.255C499.248 143.473 479.931 142.524 479.931 142.524L464.771 142.274C464.771 142.274 454.667 141.954 446.592 148.59C438.518 155.226 433.121 160.303 433.121 160.303L445.813 174.973L453.318 169.976C453.318 169.976 450.62 174.853 451.07 178.971C451.489 182.968 455.687 186.036 455.687 186.036L456.686 211.819L501.657 212.309L495.631 174.084H505.075Z" fill="#3368EB"/>
<path d="M483.898 156.215C484.022 156.562 484.109 156.92 484.158 157.284L484.748 160.282C485.248 162.901 485.907 166.279 486.637 170.026C487.366 173.774 487.976 177.302 488.376 179.81C488.575 181.069 488.715 182.088 488.795 182.808C488.861 183.174 488.884 183.546 488.865 183.917C488.73 183.57 488.64 183.208 488.595 182.838L488.016 179.89C487.506 177.272 486.847 173.894 486.127 170.136C485.408 166.379 484.778 162.871 484.378 160.352C484.188 159.093 484.038 158.074 483.958 157.354C483.889 156.979 483.868 156.596 483.898 156.215Z" fill="#263238"/>
<path d="M505.395 174.244C502.355 174.521 499.302 174.621 496.251 174.543C493.197 174.634 490.141 174.557 487.096 174.314C490.136 174.036 493.189 173.936 496.241 174.014C499.294 173.923 502.35 174 505.395 174.244Z" fill="#263238"/>
<path d="M445.783 174.973C443.557 172.654 441.455 170.219 439.487 167.678C437.387 165.246 435.419 162.704 433.591 160.063C435.818 162.377 437.92 164.809 439.887 167.348C441.988 169.782 443.956 172.327 445.783 174.973Z" fill="#263238"/>
<path d="M451.11 174.353C451.329 173.657 451.624 172.987 451.989 172.355L453.059 170.216C453.605 169.461 453.87 168.538 453.808 167.608C453.438 165.609 453.089 163.71 452.879 162.371C452.709 161.647 452.625 160.906 452.629 160.163C452.914 160.849 453.119 161.567 453.238 162.301C453.538 163.64 453.948 165.459 454.328 167.538C454.432 168.081 454.366 168.643 454.138 169.147C453.946 169.588 453.729 170.019 453.488 170.436L452.309 172.535C451.983 173.186 451.58 173.797 451.11 174.353Z" fill="#263238"/>
<path opacity="0.2" d="M456.556 208.552L455.906 198.958H499.249L500.898 207.282L456.556 208.552Z" fill="black"/>
<path opacity="0.2" d="M484.308 157.734C484.508 163.604 484.701 169.47 484.888 175.333C485.116 177.22 484.851 179.135 484.118 180.889C482.609 183.757 479.042 184.697 475.874 185.346L456.556 189.344L492.343 187.595L484.308 157.734Z" fill="black"/>
<path d="M507.144 187.575C506.144 179.49 505.085 174.273 505.085 174.273L487.476 174.543C487.476 174.543 489.055 183.438 488.576 185.816C488.146 187.885 454.178 189.254 445.333 189.394C444.804 189.004 444.034 189.664 443.335 189.074C442.733 188.544 442.227 187.915 441.836 187.215C441.305 186.359 440.895 185.434 440.616 184.467C440.603 184.274 440.527 184.092 440.401 183.945C440.276 183.799 440.106 183.697 439.918 183.654C439.73 183.612 439.533 183.631 439.356 183.709C439.18 183.787 439.033 183.919 438.938 184.087C438.588 184.847 438.987 187.365 440.666 189.803C442.345 192.242 437.938 190.973 436.329 190.543C434.72 190.113 429.654 189.014 429.134 189.424C428.364 190.013 428.844 190.963 430.473 191.362C432.102 191.762 436.879 193.281 436.619 194.141C436.359 195 428.164 192.682 428.164 192.682C428.164 192.682 426.496 191.892 426.166 192.881C425.566 194.66 434.44 196.469 435.3 196.619C435.889 196.719 435.63 197.668 435.01 197.528C434.39 197.389 426.885 195.02 426.256 196.829C425.766 198.218 433.551 198.378 434.84 199.757C436.129 201.136 428.954 199.007 428.534 200.357C428.384 200.856 431.372 201.086 435.66 201.696C440.067 202.116 444.495 202.273 448.921 202.165C458.915 202.705 494.042 203.435 501.547 202.905C510.311 202.285 507.483 190.353 507.144 187.575Z" fill="#FFBE9D"/>
<path d="M506.904 164.98H507.164C507.343 164.98 507.603 165.06 507.933 165.15C508.9 165.458 509.823 165.888 510.681 166.429C512.034 167.282 513.299 168.266 514.459 169.367C515.138 170.006 515.838 170.716 516.538 171.516C517.286 172.351 517.955 173.254 518.536 174.214C518.697 174.48 518.831 174.761 518.936 175.053C519.006 175.343 519.076 175.643 519.156 175.943C519.296 176.542 519.466 177.142 519.596 177.771C519.835 179.031 520.085 180.34 520.245 181.719C520.603 184.639 520.72 187.584 520.595 190.523C520.207 197.249 519.077 203.912 517.227 210.39C516.392 213.788 515.334 217.126 514.059 220.384C512.835 223.414 511.201 226.263 509.202 228.849C508.274 230.057 507.222 231.166 506.064 232.156C504.925 233.042 503.688 233.793 502.377 234.395C500.02 235.412 497.584 236.231 495.091 236.843C490.544 238.003 486.827 238.722 484.268 239.272L481.27 239.891L480.501 240.041H480.231L480.491 239.951L481.24 239.752C481.91 239.582 482.899 239.332 484.178 239.032C486.717 238.422 490.434 237.653 494.951 236.454C497.412 235.816 499.818 234.984 502.147 233.965C503.416 233.366 504.616 232.628 505.725 231.767C506.851 230.786 507.876 229.695 508.783 228.509C510.737 225.951 512.338 223.141 513.539 220.154C514.799 216.926 515.844 213.617 516.667 210.251C518.514 203.808 519.653 197.183 520.065 190.493C520.202 187.579 520.101 184.657 519.765 181.759C519.616 180.4 519.386 179.091 519.146 177.841C519.026 177.222 518.866 176.622 518.726 176.023L518.516 175.143C518.431 174.877 518.313 174.622 518.166 174.384C517.58 173.44 516.911 172.551 516.168 171.725C515.488 170.926 514.799 170.206 514.169 169.567C513.034 168.457 511.8 167.453 510.481 166.569C509.648 166.016 508.753 165.563 507.813 165.22C507.506 165.157 507.202 165.077 506.904 164.98Z" fill="#263238"/>
<path d="M428.774 133.11C428.774 133.11 429.044 131.821 429.493 128.113L433.621 120.049C433.621 120.049 432.701 118.36 430.623 121.937C430.409 122.424 430.011 122.805 429.517 122.998C429.022 123.191 428.471 123.18 427.984 122.967C427.498 122.753 427.116 122.356 426.923 121.861C426.73 121.366 426.742 120.815 426.955 120.328C427.087 119.703 427.399 119.129 427.853 118.678C428.307 118.228 428.882 117.919 429.509 117.792C430.136 117.665 430.786 117.723 431.38 117.961C431.974 118.198 432.485 118.605 432.851 119.129C432.851 119.129 434.17 119.259 434.32 118.24C434.47 117.22 431.492 114.662 428.964 115.402C427.93 115.729 426.977 116.271 426.166 116.991C426.166 116.991 426.715 108.506 426.026 108.426C425.336 108.346 424.377 108.876 423.857 118.17C423.857 118.17 423.567 110.835 423.427 109.895C423.287 108.956 422.018 108.326 421.858 110.675C421.858 110.944 421.379 118.15 421.379 118.15C421.379 118.15 420.559 113.383 420.469 113.003C420.229 112.004 419.24 112.104 419.15 113.433C419.07 114.432 418.75 118.759 418.75 118.759L418.131 132.051H418.051" fill="#FFBE9D"/>
<path d="M463.492 146.681C463.392 142.344 463.222 137.807 463.222 137.807C463.222 137.807 456.826 137.008 456.546 130.472C456.266 123.936 456.926 108.896 456.926 108.896L468.698 103.239L478.982 114.962L479.131 146.462C479.137 147.492 478.938 148.514 478.547 149.468C478.156 150.422 477.581 151.29 476.854 152.02C476.127 152.751 475.262 153.331 474.31 153.727C473.358 154.123 472.337 154.326 471.306 154.326C469.263 154.327 467.3 153.527 465.84 152.098C464.379 150.669 463.536 148.724 463.492 146.681Z" fill="#FFBE9D"/>
<path d="M458.575 119.889C458.575 120.05 458.623 120.208 458.712 120.343C458.802 120.477 458.929 120.582 459.078 120.645C459.228 120.707 459.392 120.724 459.55 120.693C459.709 120.662 459.855 120.585 459.97 120.472C460.085 120.358 460.164 120.213 460.197 120.055C460.229 119.896 460.215 119.732 460.154 119.582C460.094 119.432 459.99 119.303 459.857 119.212C459.723 119.121 459.566 119.071 459.404 119.069C459.186 119.069 458.976 119.155 458.821 119.309C458.666 119.462 458.577 119.67 458.575 119.889Z" fill="#263238"/>
<path d="M457.236 118.969C457.336 119.079 457.945 118.559 458.825 118.529C459.704 118.499 460.354 118.939 460.444 118.819C460.534 118.699 460.384 118.569 460.104 118.36C459.724 118.094 459.268 117.961 458.805 117.98C458.338 118 457.891 118.176 457.535 118.479C457.276 118.709 457.186 118.919 457.236 118.969Z" fill="#263238"/>
<path d="M468.099 119.889C468.099 120.05 468.146 120.208 468.236 120.343C468.326 120.477 468.453 120.582 468.602 120.645C468.751 120.707 468.916 120.724 469.074 120.693C469.233 120.662 469.379 120.585 469.494 120.472C469.609 120.358 469.688 120.213 469.721 120.055C469.753 119.896 469.739 119.732 469.678 119.582C469.618 119.432 469.514 119.303 469.381 119.212C469.247 119.121 469.09 119.071 468.928 119.069C468.71 119.069 468.5 119.155 468.345 119.309C468.19 119.462 468.101 119.67 468.099 119.889Z" fill="#263238"/>
<path d="M466.949 119.119C467.049 119.219 467.659 118.709 468.538 118.679C469.418 118.649 470.068 119.089 470.157 118.969C470.247 118.849 470.097 118.719 469.818 118.51C469.438 118.244 468.981 118.111 468.518 118.13C468.054 118.151 467.608 118.323 467.249 118.62C466.99 118.879 466.9 119.119 466.949 119.119Z" fill="#263238"/>
<path d="M463.651 126.674C463.186 126.54 462.706 126.466 462.222 126.455C462.002 126.455 461.793 126.405 461.743 126.235C461.725 125.99 461.774 125.745 461.883 125.525C462.092 124.936 462.302 124.316 462.522 123.666C463.114 122.092 463.586 120.475 463.931 118.829C463.226 120.356 462.634 121.932 462.162 123.546C461.953 124.196 461.753 124.816 461.553 125.405C461.406 125.717 461.37 126.07 461.453 126.405C461.486 126.485 461.538 126.557 461.604 126.615C461.67 126.672 461.748 126.713 461.833 126.734C461.956 126.769 462.084 126.786 462.212 126.784C462.695 126.809 463.178 126.772 463.651 126.674Z" fill="#263238"/>
<path d="M463.222 137.807C466.257 137.732 469.203 136.77 471.696 135.039C471.696 135.039 469.698 139.796 463.332 139.416L463.222 137.807Z" fill="#EB996E"/>
<path d="M463.971 128.973C464.024 128.699 464.143 128.442 464.317 128.225C464.491 128.007 464.715 127.835 464.971 127.724C465.15 127.642 465.344 127.599 465.54 127.599C465.737 127.599 465.931 127.642 466.11 127.724C466.287 127.819 466.431 127.965 466.524 128.143C466.617 128.321 466.654 128.523 466.63 128.723C466.579 128.937 466.465 129.132 466.303 129.281C466.141 129.431 465.938 129.529 465.72 129.562C465.287 129.631 464.843 129.604 464.421 129.482C464.301 129.46 464.186 129.416 464.081 129.353C464.029 129.321 463.988 129.275 463.963 129.219C463.938 129.164 463.931 129.102 463.942 129.043" fill="#EB996E"/>
<path d="M466.1 126.634C466.17 126.634 466.28 126.874 466.25 127.304C466.201 127.872 465.945 128.401 465.53 128.792C465.115 129.183 464.571 129.407 464.001 129.422C463.572 129.422 463.332 129.303 463.342 129.243C463.352 129.183 464.341 129.173 465.171 128.413C466 127.654 466 126.634 466.1 126.634Z" fill="#263238"/>
<path d="M447.332 157.564C447.452 156.626 447.736 155.716 448.171 154.876C448.457 153.97 448.904 153.124 449.491 152.378C449.376 153.32 449.091 154.234 448.651 155.076C448.374 155.982 447.926 156.826 447.332 157.564Z" fill="#263238"/>
<path d="M462.262 159.743C460.218 159.07 458.422 157.799 457.106 156.095C458.873 157.261 460.606 158.477 462.302 159.743H462.262Z" fill="#263238"/>
<path d="M460.404 146.841C459.036 147.68 457.501 148.208 455.906 148.39C456.55 147.907 457.29 147.567 458.075 147.391C458.802 147.041 459.597 146.853 460.404 146.841Z" fill="#263238"/>
<path d="M459.404 173.084C460.44 171 461.788 169.085 463.402 167.408C462.948 168.488 462.343 169.498 461.603 170.406C461.002 171.399 460.261 172.301 459.404 173.084Z" fill="#263238"/>
<path d="M462.713 183.321C461.696 183.945 460.594 184.419 459.441 184.728C458.342 185.193 457.184 185.503 456 185.647C458.113 184.55 460.374 183.767 462.713 183.321Z" fill="#263238"/>
<path d="M466.802 180.771C466.798 179.642 466.87 178.515 467.019 177.396C466.989 176.262 467.032 175.128 467.148 174C467.542 175.094 467.665 176.267 467.509 177.419C467.534 178.576 467.292 179.723 466.802 180.771Z" fill="#263238"/>
<path d="M470.049 182.295C469.688 181.226 469.254 180.182 468.752 179.171C468.413 178.089 468.006 177.03 467.531 176C467.513 177.162 467.775 178.312 468.296 179.352C468.646 180.455 469.246 181.462 470.049 182.295Z" fill="#263238"/>
<path d="M467.038 175.425C467.583 174.436 468.06 173.412 468.466 172.359C469.036 171.379 469.543 170.363 469.982 169.318C469.112 170.089 468.441 171.058 468.026 172.144C467.449 173.147 467.11 174.27 467.038 175.425Z" fill="#263238"/>
<path d="M481.65 182.998C479.813 183.925 477.833 184.536 475.794 184.807C477.626 183.868 479.608 183.256 481.65 182.998Z" fill="#263238"/>
<path d="M475.014 167.578C473.522 166.055 472.287 164.3 471.356 162.381C472.849 163.904 474.084 165.659 475.014 167.578Z" fill="#263238"/>
<path d="M480.471 155.906C480.471 155.906 480.341 155.906 480.181 155.796L480.351 155.726C480.327 156.76 480.193 157.788 479.951 158.794C479.781 159.922 479.398 161.007 478.822 161.992C478.905 160.869 479.113 159.76 479.441 158.684C479.741 157.345 479.981 156.195 480.151 155.686L480.211 155.486L480.321 155.626C480.441 155.786 480.491 155.886 480.471 155.906Z" fill="#263238"/>
<path d="M492.343 148.101C489.955 147.963 487.6 147.485 485.347 146.681C486.545 146.66 487.74 146.811 488.895 147.131C490.084 147.293 491.244 147.619 492.343 148.101Z" fill="#263238"/>
<path d="M489.505 159.423C489.353 158.524 489.377 157.605 489.575 156.715C489.607 155.807 489.807 154.912 490.164 154.077C490.316 154.975 490.292 155.895 490.094 156.785C490.062 157.693 489.862 158.588 489.505 159.423Z" fill="#263238"/>
<path d="M495.811 162.751C495.872 161.926 496.104 161.123 496.49 160.392C496.728 159.603 497.122 158.868 497.65 158.234C497.588 159.058 497.357 159.861 496.97 160.592C496.736 161.384 496.342 162.119 495.811 162.751Z" fill="#263238"/>
<path d="M495.861 169.087C494.72 168.572 493.657 167.899 492.703 167.088C491.641 166.437 490.678 165.635 489.845 164.71C490.986 165.224 492.049 165.897 493.003 166.708C494.06 167.366 495.022 168.166 495.861 169.087Z" fill="#263238"/>
<path d="M465.58 209.261C464.677 208.961 463.837 208.496 463.102 207.892C462.265 207.428 461.52 206.815 460.903 206.083C461.806 206.396 462.648 206.862 463.392 207.462C464.223 207.927 464.964 208.536 465.58 209.261Z" fill="#263238"/>
<path d="M476.993 205.244C476.442 206.337 475.739 207.346 474.904 208.242C474.207 209.24 473.369 210.132 472.416 210.89C472.966 209.797 473.67 208.787 474.504 207.892C475.202 206.894 476.04 206.002 476.993 205.244Z" fill="#263238"/>
<path d="M488.845 210.74C489.014 209.863 489.353 209.027 489.845 208.282C490.194 207.456 490.699 206.706 491.334 206.073C490.809 207.779 489.953 209.365 488.815 210.74H488.845Z" fill="#263238"/>
<path d="M485.677 211.39C485.016 210.764 484.48 210.018 484.098 209.191C483.575 208.447 483.193 207.614 482.969 206.733C483.635 207.355 484.171 208.102 484.548 208.931C485.079 209.67 485.462 210.505 485.677 211.39Z" fill="#263238"/>
<path d="M456.466 107.357C455.874 107.695 455.374 108.172 455.009 108.748C454.644 109.324 454.425 109.98 454.372 110.66C454.319 111.34 454.433 112.022 454.705 112.648C454.976 113.273 455.396 113.823 455.929 114.248C456.462 114.674 457.09 114.963 457.76 115.089C458.43 115.216 459.121 115.177 459.772 114.975C460.424 114.773 461.016 114.415 461.497 113.932C461.978 113.449 462.333 112.856 462.532 112.204C462.196 112.893 462.094 113.673 462.242 114.425C462.39 115.177 462.78 115.86 463.352 116.371C463.942 116.858 464.656 117.174 465.413 117.283C466.171 117.392 466.945 117.291 467.649 116.99C468.348 116.677 468.969 116.21 469.465 115.626C469.961 115.042 470.321 114.354 470.517 113.613C470.528 114.339 470.707 115.052 471.041 115.697C471.374 116.343 471.853 116.902 472.439 117.331C473.024 117.76 473.702 118.047 474.418 118.17C475.133 118.293 475.868 118.248 476.563 118.04C475.851 118.489 475.278 119.128 474.909 119.885C474.54 120.642 474.391 121.487 474.477 122.325C474.563 123.162 474.882 123.959 475.397 124.625C475.912 125.292 476.604 125.8 477.393 126.095C476.54 126.629 475.913 127.457 475.628 128.421C475.343 129.386 475.42 130.421 475.844 131.333C476.269 132.245 477.012 132.971 477.934 133.373C478.856 133.776 479.893 133.828 480.85 133.52C482.849 132.9 484.038 130.922 484.848 128.993C486.988 123.742 486.966 117.858 484.788 112.623C483.664 110.049 481.967 107.765 479.827 105.947C477.686 104.128 475.158 102.823 472.436 102.13C469.71 101.482 466.862 101.556 464.174 102.344C461.486 103.133 459.049 104.609 457.106 106.627" fill="#263238"/>
<path d="M489.645 107.956C489.645 107.956 489.645 108.026 489.695 108.176C489.721 108.389 489.721 108.603 489.695 108.816C489.589 109.62 489.24 110.373 488.696 110.974C488.27 111.452 487.727 111.809 487.12 112.013C486.514 112.216 485.865 112.258 485.238 112.134C484.428 111.959 483.689 111.544 483.119 110.944C482.548 110.343 482.172 109.584 482.04 108.766H482.52C482.411 109.434 482.159 110.071 481.781 110.634C481.403 111.196 480.909 111.67 480.331 112.024C479.711 112.424 479.001 112.661 478.265 112.711C477.529 112.762 476.792 112.625 476.124 112.313C475.489 112.026 474.925 111.604 474.471 111.075C474.017 110.547 473.684 109.926 473.495 109.255C473.387 108.928 473.348 108.581 473.378 108.237C473.409 107.894 473.51 107.56 473.675 107.257C473.87 106.951 474.168 106.724 474.515 106.617C474.693 106.562 474.882 106.549 475.066 106.581C475.25 106.612 475.424 106.686 475.574 106.797C475.829 107.018 476.004 107.317 476.073 107.647C476.142 107.978 476.1 108.322 475.954 108.626C475.699 109.149 475.304 109.591 474.814 109.905C473.971 110.476 472.962 110.75 471.946 110.685C471.116 110.635 470.319 110.339 469.658 109.835C469.163 109.468 468.754 108.997 468.459 108.456C468.262 108.121 468.12 107.757 468.039 107.377C468.017 107.248 468.017 107.116 468.039 106.987C468.209 107.46 468.42 107.919 468.668 108.356C469.02 108.936 469.508 109.421 470.09 109.769C470.671 110.117 471.329 110.318 472.006 110.355C472.933 110.39 473.846 110.119 474.605 109.585C475.031 109.316 475.377 108.936 475.604 108.486C475.707 108.276 475.738 108.038 475.693 107.809C475.648 107.58 475.529 107.372 475.354 107.217C475.253 107.161 475.142 107.125 475.028 107.112C474.913 107.1 474.797 107.11 474.686 107.142C474.576 107.175 474.472 107.229 474.383 107.302C474.293 107.375 474.219 107.465 474.165 107.567C474.041 107.814 473.968 108.084 473.951 108.361C473.934 108.637 473.972 108.914 474.065 109.175C474.234 109.771 474.532 110.323 474.938 110.791C475.344 111.259 475.847 111.632 476.413 111.884C477.003 112.161 477.653 112.284 478.303 112.242C478.953 112.2 479.582 111.995 480.131 111.644C480.65 111.329 481.096 110.908 481.441 110.409C481.785 109.909 482.02 109.343 482.13 108.746L482.38 107.057L482.599 108.756C482.721 109.476 483.052 110.145 483.552 110.678C484.051 111.211 484.697 111.585 485.408 111.754C485.976 111.871 486.564 111.841 487.117 111.666C487.67 111.491 488.169 111.177 488.566 110.754C489.115 110.208 489.493 109.513 489.655 108.756C489.645 108.256 489.615 107.956 489.645 107.956Z" fill="#455A64"/>
<path d="M494.911 114.752C494.963 115.033 494.939 115.323 494.841 115.591C494.637 116.355 494.225 117.047 493.652 117.59C493.231 118.004 492.725 118.322 492.17 118.524C491.615 118.726 491.023 118.806 490.434 118.759C489.71 118.697 489.012 118.464 488.397 118.078C487.782 117.692 487.267 117.165 486.896 116.541C486.808 116.394 486.731 116.24 486.667 116.081H487.156C486.89 116.785 486.369 117.363 485.697 117.7C485.103 118.023 484.434 118.182 483.758 118.16C482.618 118.108 481.542 117.613 480.76 116.781C480.244 116.261 479.828 115.651 479.531 114.982C479.399 114.751 479.314 114.496 479.281 114.232C479.769 115.058 480.349 115.826 481.01 116.521C481.741 117.238 482.715 117.655 483.738 117.69C484.346 117.716 484.948 117.56 485.466 117.241C485.985 116.922 486.396 116.456 486.646 115.901L486.846 115.342L487.126 115.891C487.196 116.021 487.246 116.161 487.326 116.291C487.659 116.842 488.115 117.308 488.657 117.655C489.199 118.001 489.814 118.219 490.454 118.29C490.985 118.332 491.518 118.266 492.022 118.094C492.525 117.922 492.988 117.648 493.382 117.29C493.937 116.812 494.366 116.204 494.631 115.521C494.711 115.26 494.805 115.004 494.911 114.752Z" fill="#455A64"/>
<path d="M488.326 127.114C488.038 127.315 487.712 127.453 487.367 127.518C487.022 127.584 486.668 127.575 486.327 127.494C485.567 127.395 484.863 127.043 484.328 126.494C483.671 125.798 483.313 124.873 483.329 123.916L483.719 124.146L483.569 124.216C482.695 124.667 481.678 124.753 480.741 124.456C479.985 124.214 479.334 123.725 478.892 123.067C478.665 122.791 478.501 122.47 478.409 122.125C478.318 121.78 478.302 121.42 478.362 121.068C478.533 121.705 478.813 122.307 479.191 122.847C479.62 123.398 480.211 123.8 480.88 123.996C481.698 124.224 482.571 124.138 483.329 123.756L483.459 123.696L483.848 123.476V123.916C483.846 124.673 484.103 125.407 484.576 125.998C485.048 126.588 485.708 127 486.447 127.164C487.072 127.246 487.706 127.229 488.326 127.114Z" fill="#455A64"/>
<path d="M451.549 111.284C452.284 111.949 453.153 112.446 454.098 112.743C455.121 113.023 456.209 112.949 457.186 112.533C458.369 112.008 459.298 111.039 459.774 109.835C459.877 109.556 459.957 109.268 460.014 108.976L460.174 108.196L460.504 108.916C460.638 109.145 460.843 109.326 461.087 109.43C461.332 109.535 461.604 109.557 461.863 109.495C462.394 109.365 462.876 109.084 463.252 108.686C463.934 108.003 464.415 107.146 464.641 106.207C464.82 105.332 464.844 104.433 464.711 103.549C464.847 103.761 464.935 104 464.971 104.249C465.105 104.908 465.105 105.588 464.971 106.247C464.779 107.273 464.293 108.221 463.572 108.976C463.142 109.466 462.574 109.814 461.943 109.975C461.573 110.061 461.185 110.023 460.839 109.868C460.492 109.713 460.206 109.449 460.024 109.116L460.514 109.046C460.459 109.387 460.369 109.722 460.244 110.045C459.989 110.712 459.604 111.321 459.109 111.836C458.615 112.351 458.022 112.762 457.366 113.043C456.287 113.471 455.092 113.51 453.988 113.153C453.257 112.928 452.589 112.535 452.039 112.004C451.821 111.806 451.653 111.559 451.549 111.284Z" fill="#455A64"/>
<path d="M454.447 119.479C454.507 119.479 454.507 119.959 454.028 120.478C453.699 120.796 453.293 121.024 452.85 121.138C452.406 121.251 451.941 121.248 451.499 121.128C450.653 120.903 449.883 120.455 449.271 119.829C448.801 119.379 448.561 119.059 448.601 119.009C448.641 118.959 448.991 119.179 449.501 119.549C450.132 120.037 450.851 120.4 451.619 120.618C451.987 120.717 452.373 120.73 452.747 120.657C453.121 120.585 453.474 120.428 453.778 120.198C454.238 119.849 454.368 119.459 454.447 119.479Z" fill="#455A64"/>
<path d="M462.522 120.798C462.522 120.798 462.522 120.448 462.302 119.869C462.05 119.065 461.545 118.364 460.863 117.87C460.438 117.551 459.95 117.326 459.43 117.212C458.911 117.098 458.373 117.097 457.854 117.209C457.334 117.321 456.845 117.544 456.418 117.862C455.992 118.179 455.64 118.585 455.384 119.051C455.128 119.518 454.976 120.033 454.937 120.563C454.899 121.094 454.975 121.626 455.16 122.124C455.345 122.623 455.635 123.075 456.01 123.452C456.386 123.828 456.838 124.119 457.335 124.306C457.919 124.518 458.545 124.584 459.16 124.499C459.775 124.414 460.36 124.179 460.863 123.816C461.541 123.318 462.045 122.619 462.302 121.817C462.472 121.228 462.472 120.878 462.522 120.878C462.603 121.206 462.603 121.549 462.522 121.877C462.326 122.767 461.824 123.559 461.103 124.116C460.559 124.545 459.916 124.829 459.233 124.943C458.55 125.056 457.849 124.995 457.196 124.766C456.385 124.481 455.684 123.951 455.187 123.25C454.691 122.55 454.424 121.712 454.424 120.853C454.424 119.994 454.691 119.157 455.187 118.456C455.684 117.755 456.385 117.225 457.196 116.941C457.848 116.708 458.548 116.645 459.232 116.757C459.915 116.869 460.559 117.152 461.103 117.58C461.83 118.151 462.329 118.963 462.512 119.869C462.586 120.174 462.589 120.492 462.522 120.798Z" fill="#455A64"/>
<path d="M473.625 120.798C473.625 120.798 473.625 120.448 473.405 119.869C473.157 119.063 472.651 118.361 471.966 117.87C471.541 117.548 471.052 117.322 470.532 117.207C470.011 117.091 469.472 117.089 468.951 117.201C468.43 117.313 467.939 117.536 467.512 117.854C467.084 118.173 466.731 118.58 466.475 119.048C466.22 119.516 466.068 120.033 466.03 120.565C465.993 121.096 466.07 121.63 466.257 122.129C466.445 122.628 466.737 123.081 467.115 123.456C467.494 123.832 467.948 124.122 468.449 124.306C469.03 124.518 469.655 124.584 470.268 124.499C470.882 124.413 471.465 124.179 471.966 123.816C472.647 123.321 473.152 122.62 473.405 121.817C473.575 121.228 473.585 120.878 473.625 120.878C473.716 121.205 473.716 121.551 473.625 121.877C473.435 122.78 472.933 123.587 472.206 124.156C471.664 124.585 471.023 124.869 470.341 124.983C469.659 125.097 468.96 125.036 468.309 124.806C467.498 124.521 466.797 123.991 466.3 123.29C465.804 122.59 465.537 121.752 465.537 120.893C465.537 120.034 465.804 119.197 466.3 118.496C466.797 117.795 467.498 117.265 468.309 116.981C468.959 116.749 469.658 116.686 470.34 116.798C471.021 116.91 471.663 117.193 472.206 117.62C472.935 118.191 473.438 119.002 473.625 119.909C473.698 120.201 473.698 120.506 473.625 120.798Z" fill="#455A64"/>
<path d="M465.98 120.608C465.98 120.758 465.191 120.868 464.211 120.868C463.232 120.868 462.452 120.758 462.452 120.608C462.452 120.458 463.242 120.348 464.211 120.348C465.181 120.348 465.98 120.468 465.98 120.608Z" fill="#455A64"/>
<path d="M426.825 211.35C441.977 209.838 457.231 209.647 472.416 210.78L453.108 238.442L435.719 238.512L432.022 317.991H409.037L411.235 228.728C411.336 224.455 412.961 220.359 415.816 217.178C418.671 213.997 422.568 211.941 426.805 211.38L426.825 211.35Z" fill="#263238"/>
<path d="M469.158 240.631C469.158 240.631 503.606 242.97 502.746 212.029C502.746 212.029 447.562 202.705 443.974 218.745C442.815 223.902 445.973 318.601 445.973 318.601H470.097" fill="#263238"/>
<path d="M469.498 233.775C469.702 236.415 469.551 239.071 469.048 241.67C468.858 239.03 469.009 236.377 469.498 233.775Z" fill="#455A64"/>
<path d="M468.398 209.181C468.246 209.267 468.085 209.338 467.919 209.391C467.609 209.511 467.139 209.671 466.52 209.851C464.767 210.321 462.989 210.688 461.193 210.95C458.546 211.292 455.932 211.854 453.378 212.629C451.898 213.109 450.487 213.781 449.181 214.628C447.798 215.567 446.627 216.786 445.743 218.205C444.026 220.972 443.167 224.185 443.275 227.439C443.435 230.437 443.574 233.146 443.694 235.434C443.814 237.723 443.884 239.502 443.944 240.861C443.944 241.45 443.944 241.93 443.944 242.33C443.972 242.502 443.972 242.677 443.944 242.849C443.903 242.679 443.877 242.505 443.864 242.33C443.864 241.94 443.784 241.45 443.724 240.871C443.624 239.512 443.474 237.683 443.305 235.464C443.135 233.246 442.935 230.467 442.775 227.469C442.636 224.114 443.514 220.794 445.293 217.945C446.208 216.466 447.428 215.199 448.871 214.228C450.218 213.348 451.677 212.653 453.208 212.159C455.795 211.4 458.444 210.868 461.123 210.57C463.382 210.26 465.21 209.941 466.45 209.641C467.689 209.341 468.378 209.141 468.398 209.181Z" fill="#455A64"/>
<path d="M395.226 154.307L408.307 195.14L480.631 196.459L480.151 194.281L453.738 193.471L441.576 154.287L395.226 154.307Z" fill="#455A64"/>
<path d="M424.597 174.713C425.026 176.442 424.287 178.141 422.948 178.501C421.609 178.861 420.16 177.751 419.73 176.023C419.3 174.294 420.04 172.605 421.389 172.245C422.738 171.885 424.127 172.995 424.597 174.713Z" fill="white"/>
<path d="M556.222 183.448C555.056 182.579 553.614 182.163 552.164 182.278C552.164 181.499 552.164 181.009 552.164 181.009H530.059C530.059 181.009 529.359 195.61 540.542 196.13C545.539 196.359 548.407 194.131 550.046 191.293C550.867 191.493 551.709 191.597 552.554 191.602C553.793 191.648 555.015 191.298 556.042 190.603C556.601 190.162 557.044 189.591 557.334 188.939C557.623 188.288 557.749 187.576 557.701 186.866C557.729 186.221 557.611 185.578 557.355 184.986C557.099 184.394 556.711 183.868 556.222 183.448ZM554.703 188.864C553.763 189.574 552.074 189.464 550.965 189.264C551.532 187.719 551.895 186.106 552.045 184.467C553.013 184.354 553.992 184.58 554.813 185.107C555.054 185.33 555.24 185.605 555.358 185.912C555.476 186.219 555.522 186.548 555.492 186.875C555.533 187.246 555.482 187.621 555.344 187.968C555.207 188.314 554.986 188.622 554.703 188.864Z" fill="#3368EB"/>
<path d="M548.896 176.302C548.734 176.159 548.593 175.995 548.477 175.813C548.117 175.293 547.868 174.704 547.747 174.084C547.524 173.082 547.614 172.035 548.007 171.086C548.623 169.927 549.47 168.907 550.495 168.088C551.647 167.027 552.431 165.627 552.734 164.09C552.997 162.746 552.86 161.355 552.339 160.088C551.819 158.822 550.938 157.736 549.806 156.965C548.957 156.426 548.035 156.012 547.068 155.736C546.019 155.443 545.037 154.948 544.179 154.277C543.761 153.897 543.421 153.439 543.18 152.928C542.922 152.386 542.848 151.776 542.97 151.189C542.97 151.099 543.02 151.019 543.04 150.949L543.3 151.209C542.839 151.416 542.444 151.747 542.16 152.165C541.876 152.583 541.713 153.072 541.691 153.577C541.631 154.595 541.856 155.609 542.341 156.505C542.78 157.435 543.34 158.294 543.72 159.233C544.16 160.147 544.353 161.16 544.279 162.172C544.153 163.144 543.686 164.04 542.96 164.7C542.305 165.309 541.556 165.808 540.742 166.179C539.276 166.714 537.841 167.331 536.444 168.028C535.335 168.66 534.456 169.63 533.936 170.796C533.537 171.675 533.333 172.629 533.336 173.594C533.362 174.419 533.517 175.236 533.796 176.013C533.766 175.968 533.739 175.921 533.716 175.873C533.716 175.773 533.596 175.633 533.526 175.423C533.315 174.835 533.197 174.218 533.177 173.594C533.144 172.603 533.331 171.616 533.726 170.706C534.245 169.482 535.141 168.456 536.285 167.778C537.685 167.061 539.123 166.421 540.592 165.859C541.372 165.503 542.088 165.02 542.71 164.43C543.364 163.827 543.785 163.014 543.9 162.132C543.961 161.187 543.775 160.244 543.36 159.393C542.97 158.494 542.431 157.634 541.981 156.685C541.452 155.72 541.206 154.626 541.271 153.527C541.336 152.96 541.524 152.415 541.821 151.928C542.129 151.414 542.606 151.022 543.17 150.819L543.54 150.679L543.43 151.079L543.38 151.279C543.311 151.784 543.376 152.298 543.569 152.77C543.762 153.242 544.076 153.655 544.479 153.967C545.299 154.604 546.236 155.073 547.238 155.346C548.237 155.637 549.19 156.071 550.066 156.635C550.897 157.208 551.601 157.947 552.134 158.804C553.156 160.39 553.515 162.313 553.134 164.16C552.799 165.751 551.966 167.193 550.755 168.278C549.744 169.077 548.902 170.069 548.277 171.196C547.897 172.087 547.789 173.071 547.967 174.024C548.099 174.844 548.417 175.624 548.896 176.302Z" fill="#263238"/>
<path d="M575.849 195.33H349.035V202.276H361.167L354.712 325.027L358.179 325.017L364.635 202.276L563.437 201.187L568.014 324.657L571.842 324.867L566.945 202.276H575.849V195.33Z" fill="#263238"/>
<path d="M225.655 29.6969H129.107V325.456H225.655V29.6969Z" fill="#EBEBEB"/>
<path d="M301.826 30.6561H225.515V325.466H301.826V30.6561Z" fill="#E0E0E0"/>
<path d="M216.351 77.0363H134.453V100.091H216.351V77.0363Z" fill="#263238"/>
<path d="M141.319 79.9346H136.732V97.5832H141.319V79.9346Z" fill="#3368EB"/>
<path d="M146.726 83.6421C146.728 83.931 146.644 84.2141 146.485 84.4554C146.326 84.6966 146.098 84.8852 145.832 84.9972C145.566 85.1091 145.272 85.1395 144.988 85.0843C144.704 85.0291 144.444 84.8909 144.239 84.6873C144.033 84.4836 143.894 84.2237 143.836 83.9404C143.779 83.6571 143.808 83.3632 143.918 83.096C144.028 82.8288 144.215 82.6004 144.455 82.4396C144.695 82.2788 144.978 82.193 145.267 82.193C145.652 82.193 146.022 82.3453 146.295 82.6168C146.568 82.8883 146.723 83.2568 146.726 83.6421Z" fill="white"/>
<path d="M146.726 89.878C146.726 90.1666 146.64 90.4487 146.48 90.6886C146.32 90.9286 146.092 91.1156 145.825 91.226C145.558 91.3364 145.265 91.3653 144.982 91.309C144.699 91.2527 144.439 91.1138 144.235 90.9097C144.031 90.7057 143.892 90.4457 143.836 90.1626C143.779 89.8796 143.808 89.5863 143.919 89.3197C144.029 89.053 144.216 88.8252 144.456 88.6648C144.696 88.5045 144.978 88.4189 145.267 88.4189C145.654 88.4189 146.025 88.5727 146.298 88.8463C146.572 89.1199 146.726 89.491 146.726 89.878Z" fill="white"/>
<path d="M157.059 82.193H152.552V95.7443H157.059V82.193Z" fill="#455A64"/>
<path d="M163.565 82.193H159.058V95.7443H163.565V82.193Z" fill="#455A64"/>
<path d="M170.081 82.193H165.573V95.7443H170.081V82.193Z" fill="#455A64"/>
<path d="M176.586 82.193H172.079V95.7443H176.586V82.193Z" fill="#455A64"/>
<path d="M183.092 82.193H178.585V95.7443H183.092V82.193Z" fill="#455A64"/>
<path d="M189.608 82.193H185.101V95.7443H189.608V82.193Z" fill="#455A64"/>
<path d="M196.114 82.193H191.607V95.7443H196.114V82.193Z" fill="#455A64"/>
<path d="M202.63 82.193H198.123V95.7443H202.63V82.193Z" fill="#455A64"/>
<path d="M209.135 82.193H204.628V95.7443H209.135V82.193Z" fill="#455A64"/>
<path d="M215.641 82.193H211.134V95.7443H215.641V82.193Z" fill="#455A64"/>
<path d="M216.351 110.155H134.453V133.21H216.351V110.155Z" fill="#263238"/>
<path d="M141.319 113.063H136.732V130.712H141.319V113.063Z" fill="#3368EB"/>
<path d="M146.726 116.771C146.726 117.059 146.64 117.341 146.48 117.581C146.32 117.821 146.092 118.008 145.825 118.119C145.558 118.229 145.265 118.258 144.982 118.202C144.699 118.145 144.439 118.006 144.235 117.802C144.031 117.598 143.892 117.338 143.836 117.055C143.779 116.772 143.808 116.479 143.919 116.212C144.029 115.946 144.216 115.718 144.456 115.558C144.696 115.397 144.978 115.312 145.267 115.312C145.654 115.312 146.025 115.465 146.298 115.739C146.572 116.013 146.726 116.384 146.726 116.771Z" fill="white"/>
<path d="M146.726 123.007C146.726 123.295 146.64 123.577 146.48 123.817C146.32 124.057 146.092 124.244 145.825 124.355C145.558 124.465 145.265 124.494 144.982 124.438C144.699 124.381 144.439 124.242 144.235 124.038C144.031 123.834 143.892 123.574 143.836 123.291C143.779 123.008 143.808 122.715 143.919 122.448C144.029 122.182 144.216 121.954 144.456 121.794C144.696 121.633 144.978 121.548 145.267 121.548C145.654 121.548 146.025 121.701 146.298 121.975C146.572 122.249 146.726 122.62 146.726 123.007Z" fill="white"/>
<path d="M157.059 115.312H152.552V128.863H157.059V115.312Z" fill="#455A64"/>
<path d="M163.565 115.312H159.058V128.863H163.565V115.312Z" fill="#455A64"/>
<path d="M170.081 115.312H165.573V128.863H170.081V115.312Z" fill="#455A64"/>
<path d="M176.586 115.312H172.079V128.863H176.586V115.312Z" fill="#455A64"/>
<path d="M183.092 115.312H178.585V128.863H183.092V115.312Z" fill="#455A64"/>
<path d="M189.608 115.312H185.101V128.863H189.608V115.312Z" fill="#455A64"/>
<path d="M196.114 115.312H191.607V128.863H196.114V115.312Z" fill="#455A64"/>
<path d="M202.63 115.312H198.123V128.863H202.63V115.312Z" fill="#455A64"/>
<path d="M209.135 115.312H204.628V128.863H209.135V115.312Z" fill="#455A64"/>
<path d="M215.641 115.312H211.134V128.863H215.641V115.312Z" fill="#455A64"/>
<path d="M216.351 143.553H134.453V166.609H216.351V143.553Z" fill="#263238"/>
<path d="M141.319 146.452H136.732V164.1H141.319V146.452Z" fill="#3368EB"/>
<path d="M146.726 150.159C146.726 150.449 146.639 150.733 146.477 150.974C146.315 151.214 146.084 151.401 145.815 151.51C145.546 151.62 145.251 151.646 144.967 151.586C144.683 151.527 144.423 151.384 144.221 151.176C144.018 150.968 143.883 150.704 143.831 150.418C143.779 150.133 143.814 149.838 143.93 149.572C144.047 149.307 144.24 149.082 144.485 148.926C144.731 148.771 145.017 148.692 145.307 148.7C145.687 148.71 146.048 148.869 146.313 149.141C146.578 149.414 146.726 149.779 146.726 150.159Z" fill="white"/>
<path d="M146.726 156.395C146.726 156.684 146.64 156.966 146.48 157.206C146.32 157.446 146.092 157.633 145.825 157.743C145.558 157.854 145.265 157.883 144.982 157.826C144.699 157.77 144.439 157.631 144.235 157.427C144.031 157.223 143.892 156.963 143.836 156.68C143.779 156.397 143.808 156.104 143.919 155.837C144.029 155.57 144.216 155.343 144.456 155.182C144.696 155.022 144.978 154.936 145.267 154.936C145.654 154.936 146.025 155.09 146.298 155.364C146.572 155.637 146.726 156.008 146.726 156.395Z" fill="white"/>
<path d="M157.059 148.7H152.552V162.251H157.059V148.7Z" fill="#455A64"/>
<path d="M163.565 148.7H159.058V162.251H163.565V148.7Z" fill="#455A64"/>
<path d="M170.081 148.7H165.573V162.251H170.081V148.7Z" fill="#455A64"/>
<path d="M176.586 148.7H172.079V162.251H176.586V148.7Z" fill="#455A64"/>
<path d="M183.092 148.7H178.585V162.251H183.092V148.7Z" fill="#455A64"/>
<path d="M189.608 148.7H185.101V162.251H189.608V148.7Z" fill="#455A64"/>
<path d="M196.114 148.7H191.607V162.251H196.114V148.7Z" fill="#455A64"/>
<path d="M202.63 148.7H198.123V162.251H202.63V148.7Z" fill="#455A64"/>
<path d="M209.135 148.7H204.628V162.251H209.135V148.7Z" fill="#455A64"/>
<path d="M215.641 148.7H211.134V162.251H215.641V148.7Z" fill="#455A64"/>
<path d="M216.351 177.402H134.453V200.457H216.351V177.402Z" fill="#263238"/>
<path d="M141.319 180.3H136.732V197.948H141.319V180.3Z" fill="#3368EB"/>
<path d="M146.726 184.007C146.726 184.296 146.64 184.578 146.48 184.818C146.32 185.058 146.092 185.245 145.825 185.355C145.558 185.466 145.265 185.495 144.982 185.438C144.699 185.382 144.439 185.243 144.235 185.039C144.031 184.835 143.892 184.575 143.836 184.292C143.779 184.009 143.808 183.716 143.919 183.449C144.029 183.182 144.216 182.955 144.456 182.794C144.696 182.634 144.978 182.548 145.267 182.548C145.654 182.548 146.025 182.702 146.298 182.976C146.572 183.249 146.726 183.62 146.726 184.007Z" fill="white"/>
<path d="M146.726 190.243C146.726 190.532 146.64 190.814 146.48 191.054C146.32 191.294 146.092 191.481 145.825 191.591C145.558 191.702 145.265 191.731 144.982 191.674C144.699 191.618 144.439 191.479 144.235 191.275C144.031 191.071 143.892 190.811 143.836 190.528C143.779 190.245 143.808 189.951 143.919 189.685C144.029 189.418 144.216 189.19 144.456 189.03C144.696 188.87 144.978 188.784 145.267 188.784C145.654 188.784 146.025 188.938 146.298 189.212C146.572 189.485 146.726 189.856 146.726 190.243Z" fill="white"/>
<path d="M157.059 182.548H152.552V196.1H157.059V182.548Z" fill="#455A64"/>
<path d="M163.565 182.548H159.058V196.1H163.565V182.548Z" fill="#455A64"/>
<path d="M170.081 182.548H165.573V196.1H170.081V182.548Z" fill="#455A64"/>
<path d="M176.586 182.548H172.079V196.1H176.586V182.548Z" fill="#455A64"/>
<path d="M183.092 182.548H178.585V196.1H183.092V182.548Z" fill="#455A64"/>
<path d="M189.608 182.548H185.101V196.1H189.608V182.548Z" fill="#455A64"/>
<path d="M196.114 182.548H191.607V196.1H196.114V182.548Z" fill="#455A64"/>
<path d="M202.63 182.548H198.123V196.1H202.63V182.548Z" fill="#455A64"/>
<path d="M209.135 182.548H204.628V196.1H209.135V182.548Z" fill="#455A64"/>
<path d="M215.641 182.548H211.134V196.1H215.641V182.548Z" fill="#455A64"/>
<path d="M216.351 216.047H134.453V239.102H216.351V216.047Z" fill="#263238"/>
<path d="M141.319 218.945H136.732V236.593H141.319V218.945Z" fill="#3368EB"/>
<path d="M146.726 222.653C146.726 222.941 146.64 223.223 146.48 223.463C146.32 223.703 146.092 223.89 145.825 224.001C145.558 224.111 145.265 224.14 144.982 224.084C144.699 224.027 144.439 223.888 144.235 223.684C144.031 223.48 143.892 223.22 143.836 222.937C143.779 222.654 143.808 222.361 143.919 222.094C144.029 221.828 144.216 221.6 144.456 221.439C144.696 221.279 144.978 221.194 145.267 221.194C145.654 221.194 146.025 221.347 146.298 221.621C146.572 221.895 146.726 222.266 146.726 222.653Z" fill="white"/>
<path d="M146.726 228.888C146.726 229.177 146.64 229.459 146.48 229.699C146.32 229.939 146.092 230.126 145.825 230.237C145.558 230.347 145.265 230.376 144.982 230.32C144.699 230.263 144.439 230.124 144.235 229.92C144.031 229.716 143.892 229.456 143.836 229.173C143.779 228.89 143.808 228.597 143.919 228.33C144.029 228.064 144.216 227.836 144.456 227.675C144.696 227.515 144.978 227.429 145.267 227.429C145.654 227.429 146.025 227.583 146.298 227.857C146.572 228.13 146.726 228.502 146.726 228.888Z" fill="white"/>
<path d="M157.059 221.194H152.552V234.745H157.059V221.194Z" fill="#455A64"/>
<path d="M163.565 221.194H159.058V234.745H163.565V221.194Z" fill="#455A64"/>
<path d="M170.081 221.194H165.573V234.745H170.081V221.194Z" fill="#455A64"/>
<path d="M176.586 221.194H172.079V234.745H176.586V221.194Z" fill="#455A64"/>
<path d="M183.092 221.194H178.585V234.745H183.092V221.194Z" fill="#455A64"/>
<path d="M189.608 221.194H185.101V234.745H189.608V221.194Z" fill="#455A64"/>
<path d="M196.114 221.194H191.607V234.745H196.114V221.194Z" fill="#455A64"/>
<path d="M202.63 221.194H198.123V234.745H202.63V221.194Z" fill="#455A64"/>
<path d="M209.135 221.194H204.628V234.745H209.135V221.194Z" fill="#455A64"/>
<path d="M215.641 221.194H211.134V234.745H215.641V221.194Z" fill="#455A64"/>
<path d="M216.351 288.54H134.453V311.595H216.351V288.54Z" fill="#263238"/>
<path d="M141.319 291.438H136.732V309.087H141.319V291.438Z" fill="#3368EB"/>
<path d="M146.726 295.146C146.728 295.435 146.644 295.718 146.485 295.959C146.326 296.2 146.098 296.389 145.832 296.501C145.566 296.613 145.272 296.643 144.988 296.588C144.704 296.533 144.444 296.395 144.239 296.191C144.033 295.987 143.894 295.727 143.836 295.444C143.779 295.161 143.808 294.867 143.918 294.6C144.028 294.333 144.215 294.104 144.455 293.943C144.695 293.783 144.978 293.697 145.267 293.697C145.652 293.697 146.022 293.849 146.295 294.121C146.568 294.392 146.723 294.761 146.726 295.146Z" fill="white"/>
<path d="M146.726 301.382C146.726 301.67 146.64 301.952 146.48 302.192C146.32 302.432 146.092 302.619 145.825 302.73C145.558 302.84 145.265 302.869 144.982 302.813C144.699 302.756 144.439 302.617 144.235 302.413C144.031 302.209 143.892 301.949 143.836 301.666C143.779 301.383 143.808 301.09 143.919 300.823C144.029 300.557 144.216 300.329 144.456 300.168C144.696 300.008 144.978 299.923 145.267 299.923C145.654 299.923 146.025 300.076 146.298 300.35C146.572 300.624 146.726 300.995 146.726 301.382Z" fill="white"/>
<path d="M157.059 293.697H152.552V307.248H157.059V293.697Z" fill="#455A64"/>
<path d="M163.565 293.697H159.058V307.248H163.565V293.697Z" fill="#455A64"/>
<path d="M170.081 293.697H165.573V307.248H170.081V293.697Z" fill="#455A64"/>
<path d="M176.586 293.697H172.079V307.248H176.586V293.697Z" fill="#455A64"/>
<path d="M183.092 293.697H178.585V307.248H183.092V293.697Z" fill="#455A64"/>
<path d="M189.608 293.697H185.101V307.248H189.608V293.697Z" fill="#455A64"/>
<path d="M196.114 293.697H191.607V307.248H196.114V293.697Z" fill="#455A64"/>
<path d="M202.63 293.697H198.123V307.248H202.63V293.697Z" fill="#455A64"/>
<path d="M209.135 293.697H204.628V307.248H209.135V293.697Z" fill="#455A64"/>
<path d="M215.641 293.697H211.134V307.248H215.641V293.697Z" fill="#455A64"/>
<path d="M216.351 252.323H134.453V275.378H216.351V252.323Z" fill="#263238"/>
<path d="M141.319 255.221H136.732V272.87H141.319V255.221Z" fill="#3368EB"/>
<path d="M146.726 258.929C146.728 259.218 146.644 259.501 146.485 259.743C146.326 259.984 146.098 260.172 145.832 260.284C145.566 260.396 145.272 260.427 144.988 260.372C144.704 260.316 144.444 260.178 144.239 259.975C144.033 259.771 143.894 259.511 143.836 259.228C143.779 258.944 143.808 258.65 143.918 258.383C144.028 258.116 144.215 257.888 144.455 257.727C144.695 257.566 144.978 257.48 145.267 257.48C145.652 257.48 146.022 257.633 146.295 257.904C146.568 258.175 146.723 258.544 146.726 258.929Z" fill="white"/>
<path d="M146.726 265.165C146.728 265.454 146.644 265.737 146.485 265.978C146.326 266.22 146.098 266.408 145.832 266.52C145.566 266.632 145.272 266.663 144.988 266.607C144.704 266.552 144.444 266.414 144.239 266.21C144.033 266.007 143.894 265.747 143.836 265.463C143.779 265.18 143.808 264.886 143.918 264.619C144.028 264.352 144.215 264.123 144.455 263.963C144.695 263.802 144.978 263.716 145.267 263.716C145.652 263.716 146.022 263.868 146.295 264.14C146.568 264.411 146.723 264.78 146.726 265.165Z" fill="white"/>
<path d="M157.059 257.48H152.552V271.031H157.059V257.48Z" fill="#455A64"/>
<path d="M163.565 257.48H159.058V271.031H163.565V257.48Z" fill="#455A64"/>
<path d="M170.081 257.48H165.573V271.031H170.081V257.48Z" fill="#455A64"/>
<path d="M176.586 257.48H172.079V271.031H176.586V257.48Z" fill="#455A64"/>
<path d="M183.092 257.48H178.585V271.031H183.092V257.48Z" fill="#455A64"/>
<path d="M189.608 257.48H185.101V271.031H189.608V257.48Z" fill="#455A64"/>
<path d="M196.114 257.48H191.607V271.031H196.114V257.48Z" fill="#455A64"/>
<path d="M202.63 257.48H198.123V271.031H202.63V257.48Z" fill="#455A64"/>
<path d="M209.135 257.48H204.628V271.031H209.135V257.48Z" fill="#455A64"/>
<path d="M215.641 257.48H211.134V271.031H215.641V257.48Z" fill="#455A64"/>
<path d="M185.101 77.0363C185.046 76.8038 185.019 76.5656 185.021 76.3267C185.021 75.857 184.961 75.1675 184.931 74.2781C184.901 73.3886 184.931 72.2793 184.841 71.0401C184.795 69.6225 184.608 68.2131 184.281 66.8328C183.816 65.1818 183.076 63.621 182.093 62.2158C180.971 60.6064 179.41 59.3539 177.596 58.6082C175.55 57.8625 173.404 57.4279 171.23 57.319L164.184 56.6994C154.511 55.8699 145.746 55.3303 139.39 55.2104C136.212 55.1504 133.644 55.2104 131.865 55.2104H129.816C129.581 55.2367 129.343 55.2367 129.107 55.2104C129.341 55.1698 129.579 55.1464 129.816 55.1404L131.865 55.0105C133.634 54.9405 136.212 54.8706 139.4 54.8906C145.766 54.8906 154.551 55.3902 164.224 56.2297L171.28 56.8493C173.502 56.9529 175.696 57.3944 177.786 58.1584C179.673 58.9468 181.291 60.266 182.443 61.956C183.44 63.4078 184.18 65.0203 184.631 66.7229C184.953 68.133 185.12 69.5739 185.131 71.0202C185.131 72.2893 185.131 73.3786 185.131 74.2681C185.131 75.1575 185.131 75.7871 185.131 76.2668C185.146 76.5236 185.136 76.7813 185.101 77.0363Z" fill="#263238"/>
<path d="M160.297 77.0363C160.252 76.8161 160.236 76.5912 160.247 76.3668V74.438C160.247 73.5985 160.247 72.5792 160.147 71.4399C160.086 70.1176 159.746 68.8233 159.148 67.6424C158.26 66.3099 156.956 65.3085 155.44 64.7942C153.725 64.1235 151.859 63.9335 150.044 64.2446C149.07 64.406 148.128 64.7232 147.255 65.184C146.362 65.6344 145.614 66.327 145.097 67.1827C144.843 67.6236 144.71 68.1232 144.71 68.6317C144.71 69.1403 144.843 69.6399 145.097 70.0808C145.357 70.5397 145.709 70.9404 146.13 71.2584C146.551 71.5763 147.033 71.8048 147.545 71.9296C148.056 72.0413 148.587 72.0239 149.089 71.8791C149.592 71.7343 150.05 71.4666 150.423 71.1001C151.176 70.3778 151.635 69.4025 151.713 68.3619C151.78 67.3552 151.474 66.3588 150.853 65.5637C150.298 64.7566 149.553 64.0978 148.684 63.645C147.83 63.2544 146.913 63.0176 145.976 62.9454C145.057 62.8155 144.157 62.6856 143.288 62.5956C141.549 62.3958 139.91 62.2858 138.421 62.2259C135.423 62.106 133.015 62.1559 131.346 62.1559H129.417C129.194 62.1796 128.97 62.1796 128.747 62.1559C128.967 62.1093 129.192 62.0859 129.417 62.086L131.346 61.996C133.015 61.9261 135.433 61.8261 138.431 61.8961C139.93 61.8961 141.579 62.026 143.328 62.2059C144.207 62.2958 145.117 62.4058 146.046 62.5357C146.516 62.6056 146.976 62.6656 147.465 62.7555C147.965 62.8571 148.449 63.0252 148.904 63.2552C149.845 63.7409 150.654 64.4473 151.263 65.3139C151.966 66.222 152.307 67.3592 152.218 68.5044C152.129 69.6496 151.618 70.7209 150.783 71.5099C150.352 71.9418 149.82 72.2593 149.236 72.4338C148.651 72.6083 148.032 72.6342 147.435 72.5092C146.849 72.3689 146.298 72.1092 145.817 71.7464C145.335 71.3836 144.934 70.9255 144.637 70.4006C144.347 69.883 144.195 69.2998 144.195 68.7067C144.195 68.1136 144.347 67.5303 144.637 67.0128C145.197 66.0526 146.023 65.2751 147.016 64.7742C147.933 64.2815 148.926 63.9439 149.954 63.7749C151.855 63.4624 153.805 63.6802 155.59 64.4045C157.186 64.9659 158.548 66.0461 159.458 67.4725C160.084 68.7139 160.426 70.0796 160.457 71.4699C160.527 72.6691 160.457 73.6885 160.457 74.5279C160.457 75.3674 160.397 75.957 160.377 76.4567C160.367 76.6518 160.34 76.8457 160.297 77.0363Z" fill="#263238"/>
<path d="M191.787 77.0365C191.704 76.7898 191.647 76.5353 191.617 76.277C191.527 75.7673 191.387 75.0278 191.187 74.0784C190.637 71.4054 189.83 68.7917 188.778 66.2734C187.293 62.5074 184.834 59.2035 181.653 56.6996C179.73 55.3117 177.476 54.4536 175.117 54.2112C172.565 53.9348 169.999 53.798 167.432 53.8015C156.849 53.6016 147.255 53.6416 140.32 53.3717C136.852 53.2518 134.044 53.0919 132.105 52.952L129.876 52.7721C129.617 52.7624 129.36 52.7289 129.107 52.6722C129.366 52.6482 129.627 52.6482 129.886 52.6722L132.115 52.7621C134.054 52.8421 136.862 52.942 140.33 53.012C147.265 53.1919 156.849 53.0919 167.442 53.2918C170.03 53.2863 172.616 53.4298 175.187 53.7215C177.629 53.983 179.959 54.8826 181.943 56.3298C183.687 57.668 185.206 59.2774 186.44 61.0968C187.5 62.6671 188.397 64.3413 189.118 66.0935C190.151 68.6446 190.911 71.2976 191.387 74.0084C191.557 74.9578 191.667 75.7073 191.727 76.217C191.769 76.4881 191.789 76.7621 191.787 77.0365Z" fill="#263238"/>
<path d="M215.221 33.3745H135.573V44.9371H215.221V33.3745Z" fill="#263238"/>
<path d="M196.454 39.1609H153.092V44.9372H196.454V39.1609Z" fill="#455A64"/>
<path d="M247.72 273.18C247.72 273.18 246.841 273.32 245.312 273.759C243.168 274.414 241.143 275.409 239.316 276.708C238.05 277.596 236.913 278.655 235.938 279.856C235.396 280.514 234.931 281.232 234.549 281.994C234.179 282.821 233.888 283.681 233.679 284.562C232.77 288.21 233.04 292.397 233.23 296.755C233.42 301.112 233.12 305.439 231.401 308.927C230.623 310.581 229.519 312.059 228.153 313.274C225.962 315.177 223.289 316.439 220.428 316.922C219.456 317.068 218.471 317.112 217.49 317.052C216.873 317.011 216.261 316.914 215.661 316.762C215.451 316.724 215.246 316.66 215.052 316.572C215.052 316.512 215.921 316.782 217.5 316.842C218.464 316.876 219.429 316.805 220.378 316.632C221.63 316.395 222.848 316.006 224.006 315.473C225.411 314.832 226.711 313.983 227.863 312.954C229.173 311.764 230.229 310.323 230.971 308.717C232.61 305.339 232.89 301.102 232.7 296.725C232.51 292.347 232.25 288.14 233.21 284.393C233.432 283.482 233.743 282.594 234.139 281.744C234.54 280.952 235.029 280.207 235.598 279.526C236.615 278.312 237.795 277.246 239.106 276.358C240.983 275.064 243.069 274.104 245.272 273.52C245.87 273.364 246.478 273.247 247.091 273.17C247.3 273.146 247.512 273.15 247.72 273.18Z" fill="#263238"/>
<path d="M217.54 312.994H211.004V320.949H217.54V312.994Z" fill="#263238"/>
<path d="M284.387 253.093H247.72V293.267H284.387V253.093Z" fill="#455A64"/>
<path d="M274.583 281.871C279.298 277.157 279.298 269.513 274.583 264.799C269.869 260.084 262.225 260.084 257.511 264.799C252.796 269.513 252.796 277.157 257.511 281.871C262.225 286.586 269.869 286.586 274.583 281.871Z" fill="#263238"/>
<path d="M272.085 273.33C272.085 274.516 271.733 275.675 271.074 276.661C270.415 277.647 269.479 278.416 268.383 278.87C267.288 279.323 266.082 279.442 264.919 279.211C263.756 278.979 262.687 278.408 261.849 277.57C261.01 276.731 260.439 275.663 260.208 274.5C259.976 273.337 260.095 272.131 260.549 271.035C261.003 269.94 261.771 269.003 262.757 268.344C263.743 267.685 264.903 267.334 266.089 267.334C267.679 267.334 269.204 267.965 270.329 269.09C271.453 270.214 272.085 271.74 272.085 273.33Z" fill="#455A64"/>
<path d="M252.677 260.448C253.296 260.448 253.797 259.947 253.797 259.329C253.797 258.711 253.296 258.209 252.677 258.209C252.059 258.209 251.558 258.711 251.558 259.329C251.558 259.947 252.059 260.448 252.677 260.448Z" fill="#263238"/>
<path d="M278.78 260.448C279.399 260.448 279.9 259.947 279.9 259.329C279.9 258.711 279.399 258.209 278.78 258.209C278.162 258.209 277.661 258.711 277.661 259.329C277.661 259.947 278.162 260.448 278.78 260.448Z" fill="#263238"/>
<path d="M279.01 290.109C279.629 290.109 280.13 289.608 280.13 288.99C280.13 288.372 279.629 287.87 279.01 287.87C278.392 287.87 277.891 288.372 277.891 288.99C277.891 289.608 278.392 290.109 279.01 290.109Z" fill="#263238"/>
<path d="M252.677 290.569C253.296 290.569 253.797 290.068 253.797 289.449C253.797 288.831 253.296 288.33 252.677 288.33C252.059 288.33 251.558 288.831 251.558 289.449C251.558 290.068 252.059 290.569 252.677 290.569Z" fill="#263238"/>
<path d="M287.345 253.093H284.387V293.267H287.345V253.093Z" fill="#263238"/>
<path d="M315.527 101.92C315.527 102.06 305.024 102.18 292.062 102.18C279.101 102.18 268.597 102.06 268.597 101.92C268.597 101.781 279.101 101.661 292.062 101.661C305.024 101.661 315.527 101.781 315.527 101.92Z" fill="#263238"/>
<path d="M412.904 106.907C412.755 106.916 412.604 106.916 412.455 106.907H411.076H405.709L385.602 106.987L316.197 107.127H316.007L315.957 106.947C315.194 104.341 315.058 101.592 315.559 98.9236C316.06 96.2551 317.184 93.7426 318.84 91.5909C320.496 89.4391 322.637 87.7089 325.088 86.5413C327.539 85.3736 330.232 84.8014 332.946 84.8714L332.686 85.2012C332.26 83.6873 332.078 82.1153 332.146 80.5442C332.233 77.8702 333.016 75.2651 334.418 72.9866C335.821 70.708 337.793 68.835 340.141 67.5526C342.412 66.366 344.939 65.753 347.501 65.767C350.064 65.7809 352.584 66.4214 354.842 67.6325L354.492 67.7625C355.744 64.853 357.587 62.2356 359.904 60.0765C362.222 57.9174 364.963 56.2637 367.953 55.2205C370.703 54.1784 373.638 53.7117 376.576 53.8492C379.513 53.9867 382.392 54.7256 385.032 56.02C389.782 58.5386 393.516 62.6192 395.605 67.5726C397.518 71.926 397.974 76.7805 396.905 81.4137L396.715 81.1938C399.435 80.9151 402.181 81.3134 404.71 82.3531C406.98 83.2615 409.026 84.6527 410.706 86.4304C411.467 87.2283 412.1 88.1384 412.585 89.1287C413.016 90.0441 413.351 91.002 413.584 91.9868C413.993 93.6971 414.22 95.4456 414.263 97.2035C414.354 99.6282 414.146 102.055 413.644 104.429C413.509 105.043 413.343 105.651 413.144 106.248C413.004 106.647 412.924 106.837 412.924 106.837C412.924 106.837 412.984 106.617 413.104 106.218C413.224 105.818 413.374 105.218 413.544 104.409C414.001 102.039 414.179 99.6244 414.074 97.2135C414.012 95.4711 413.771 93.7398 413.354 92.0468C412.908 90.0183 411.925 88.1472 410.506 86.6303C408.856 84.8928 406.852 83.5297 404.63 82.6329C402.135 81.6266 399.429 81.2524 396.755 81.5436H396.505L396.555 81.2937C397.593 76.7355 397.127 71.9636 395.226 67.6925C393.168 62.8367 389.497 58.8405 384.832 56.3798C382.246 55.1201 379.429 54.4037 376.555 54.2748C373.682 54.1459 370.812 54.6072 368.123 55.6303C365.2 56.6578 362.522 58.2795 360.257 60.3934C357.991 62.5072 356.189 65.0673 354.962 67.9124L354.852 68.1722L354.602 68.0423C352.417 66.872 349.979 66.2539 347.5 66.2417C345.022 66.2295 342.578 66.8236 340.381 67.9723C338.128 69.215 336.236 71.0213 334.891 73.2145C333.546 75.4078 332.793 77.9127 332.706 80.4843C332.605 82.0525 332.767 83.6265 333.186 85.1413L333.286 85.481H332.926C330.291 85.4104 327.676 85.9632 325.295 87.0944C322.914 88.2255 320.833 89.9031 319.223 91.9905C317.613 94.0779 316.519 96.5161 316.029 99.1065C315.54 101.697 315.669 104.366 316.407 106.897L316.167 106.717L385.442 106.827L405.599 106.897H411.006H412.405L412.904 106.907Z" fill="#263238"/>
<path d="M399.443 165.919C399.234 165.943 399.023 165.943 398.814 165.919L396.975 165.969L390.149 166.089L366.484 166.179H366.165V165.929C366.165 161.932 366.165 157.585 366.165 153.098C366.165 140.456 366.224 129.023 366.244 120.688C366.244 116.571 366.304 113.233 366.324 110.865C366.324 109.745 366.324 108.866 366.374 108.196C366.374 107.917 366.374 107.687 366.374 107.497C366.346 107.49 366.322 107.472 366.305 107.448C366.289 107.424 366.282 107.395 366.285 107.366C366.289 107.337 366.303 107.31 366.325 107.291C366.347 107.272 366.375 107.261 366.404 107.261C366.434 107.261 366.462 107.272 366.484 107.291C366.506 107.31 366.52 107.337 366.523 107.366C366.527 107.395 366.52 107.424 366.504 107.448C366.487 107.472 366.463 107.49 366.434 107.497C366.434 107.687 366.434 107.917 366.434 108.196C366.434 108.846 366.434 109.745 366.484 110.865C366.484 113.233 366.534 116.571 366.564 120.688C366.564 129.023 366.564 140.456 366.644 153.098C366.644 157.585 366.644 161.922 366.644 165.929L366.394 165.679L390.059 165.769L396.915 165.849H398.754C398.985 165.851 399.216 165.875 399.443 165.919Z" fill="#263238"/>
<path d="M349.955 56.4797C349.76 55.895 349.646 55.2865 349.615 54.6709C349.452 53.1978 349.392 51.7152 349.435 50.2337C349.435 49.3643 349.515 48.5348 349.595 47.7853C349.633 47.0933 349.802 46.4148 350.095 45.7866C350.316 45.358 350.666 45.0088 351.094 44.7872C351.394 44.6473 351.584 44.6573 351.584 44.6773C351.046 44.9269 350.614 45.3588 350.365 45.8965C350.124 46.4946 349.992 47.1309 349.975 47.7753C349.915 48.5248 349.875 49.3443 349.845 50.2037C349.845 51.9226 349.845 53.4816 349.915 54.6109C349.983 55.2314 349.997 55.8568 349.955 56.4797Z" fill="white"/>
<path d="M350.285 62.1561C350.175 62.1561 350.075 61.6265 350.065 60.9569C350.055 60.2873 350.125 59.7477 350.235 59.7477C350.345 59.7477 350.435 60.2873 350.455 60.9469C350.475 61.6065 350.385 62.1561 350.285 62.1561Z" fill="white"/>
</svg>
